<svg width="251" height="105" viewBox="0 0 251 105" fill="none" xmlns="http://www.w3.org/2000/svg">
<g clip-path="url(#clip0_1_2)">
<path fill-rule="evenodd" clip-rule="evenodd" d="M110.539 0.0645981L83.6463 15.6332L91.4095 29.1159L118.302 13.5474L110.539 0.0645981ZM46.6812 104.504C72.4065 104.504 93.2604 83.5932 93.2604 57.798C93.2604 45.2011 88.2868 33.7689 80.2014 25.3681C80.4201 25.6494 80.6219 25.9492 80.8043 26.2667C82.9483 29.9899 81.6764 34.7507 77.963 36.9002C74.2503 39.0498 69.5018 37.7742 67.3585 34.051C65.2145 30.3278 66.487 25.567 70.1998 23.4175C73.0043 21.7941 76.3981 22.1243 78.8157 23.9868C70.4573 15.9975 59.1405 11.0924 46.6812 11.0924C20.9561 11.0924 0.101883 32.0033 0.101883 57.798C0.101883 83.5932 20.9561 104.504 46.6812 104.504ZM29.8608 46.7703L56.7533 31.2017L64.5165 44.6845L37.6241 60.2533L29.8608 46.7703Z" fill="white"/>
<path d="M116.254 52.7008V36.2503H127.057V39.0077H119.354V42.9907H126.165V45.7482H119.354V49.9433H127.057V52.7008H116.254Z" fill="white"/>
<path d="M138.18 52.9836C137.1 52.9836 136.121 52.8029 135.244 52.4415C134.368 52.0802 133.616 51.5381 132.99 50.8153C132.379 50.0926 131.902 49.2049 131.557 48.1522C131.213 47.0994 131.041 45.8739 131.041 44.4755C131.041 43.0929 131.213 41.8752 131.557 40.8225C131.902 39.7541 132.379 38.8585 132.99 38.1357C133.616 37.413 134.368 36.8709 135.244 36.5095C136.121 36.1481 137.1 35.9675 138.18 35.9675C139.26 35.9675 140.239 36.1481 141.116 36.5095C141.993 36.8709 142.744 37.413 143.37 38.1357C143.997 38.8585 144.474 39.7541 144.803 40.8225C145.147 41.8752 145.32 43.0929 145.32 44.4755C145.32 45.8739 145.147 47.0994 144.803 48.1522C144.474 49.2049 143.997 50.0926 143.37 50.8153C142.744 51.5381 141.993 52.0802 141.116 52.4415C140.239 52.8029 139.26 52.9836 138.18 52.9836ZM138.18 50.2261C139.354 50.2261 140.286 49.8333 140.975 49.0477C141.679 48.2621 142.032 47.1623 142.032 45.7482V43.2029C142.032 41.7888 141.679 40.6889 140.975 39.9033C140.286 39.1177 139.354 38.7249 138.18 38.7249C137.006 38.7249 136.066 39.1177 135.362 39.9033C134.673 40.6889 134.329 41.7888 134.329 43.2029V45.7482C134.329 47.1623 134.673 48.2621 135.362 49.0477C136.066 49.8333 137.006 50.2261 138.18 50.2261Z" fill="white"/>
<path d="M154.901 52.9836C153.492 52.9836 152.294 52.7322 151.308 52.2294C150.337 51.7266 149.5 51.0667 148.795 50.2497L150.885 48.2229C151.449 48.8828 152.075 49.3856 152.764 49.7312C153.469 50.0769 154.244 50.2497 155.089 50.2497C156.044 50.2497 156.765 50.0455 157.25 49.6369C157.735 49.2127 157.978 48.6471 157.978 47.94C157.978 47.3901 157.821 46.9423 157.508 46.5967C157.195 46.251 156.608 45.9996 155.747 45.8425L154.197 45.6068C150.924 45.0883 149.288 43.4935 149.288 40.8225C149.288 40.084 149.421 39.4163 149.688 38.8192C149.969 38.2221 150.369 37.7115 150.885 37.2873C151.402 36.863 152.02 36.541 152.741 36.321C153.477 36.0853 154.306 35.9675 155.23 35.9675C156.467 35.9675 157.547 36.1717 158.471 36.5802C159.395 36.9887 160.186 37.5937 160.843 38.395L158.729 40.3983C158.322 39.8955 157.829 39.487 157.25 39.1727C156.671 38.8585 155.943 38.7014 155.066 38.7014C154.173 38.7014 153.5 38.8742 153.046 39.2199C152.608 39.5498 152.388 40.0212 152.388 40.6339C152.388 41.2624 152.568 41.7259 152.929 42.0245C153.289 42.323 153.868 42.543 154.666 42.6844L156.193 42.9672C157.853 43.2657 159.074 43.7999 159.857 44.5698C160.655 45.324 161.055 46.3845 161.055 47.7515C161.055 48.5371 160.914 49.252 160.632 49.8962C160.366 50.5247 159.966 51.0746 159.434 51.546C158.917 52.0016 158.275 52.3551 157.508 52.6065C156.757 52.8579 155.888 52.9836 154.901 52.9836Z" fill="white"/>
<path d="M172.531 36.2503H178.496C179.561 36.2503 180.524 36.4231 181.385 36.7688C182.262 37.1144 183.005 37.6329 183.616 38.3243C184.242 38.9999 184.72 39.8562 185.048 40.8932C185.393 41.9145 185.565 43.1086 185.565 44.4755C185.565 45.8425 185.393 47.0445 185.048 48.0815C184.72 49.1027 184.242 49.959 183.616 50.6504C183.005 51.326 182.262 51.8366 181.385 52.1823C180.524 52.528 179.561 52.7008 178.496 52.7008H172.531V36.2503ZM178.496 49.9433C179.655 49.9433 180.571 49.6055 181.244 48.9299C181.933 48.2386 182.277 47.1859 182.277 45.7718V43.1793C182.277 41.7652 181.933 40.7204 181.244 40.0447C180.571 39.3534 179.655 39.0077 178.496 39.0077H175.631V49.9433H178.496Z" fill="white"/>
<path d="M199.567 52.7008L198.252 48.5057H192.427L191.135 52.7008H187.988L193.484 36.2503H197.336L202.784 52.7008H199.567ZM195.386 39.0784H195.269L193.179 45.8425H197.5L195.386 39.0784Z" fill="white"/>
<path d="M211.508 39.0077V52.7008H208.408V39.0077H203.758V36.2503H216.158V39.0077H211.508Z" fill="white"/>
<path d="M228.714 52.7008L227.399 48.5057H221.575L220.283 52.7008H217.136L222.632 36.2503H226.483L231.932 52.7008H228.714ZM224.534 39.0784H224.416L222.326 45.8425H226.648L224.534 39.0784Z" fill="white"/>
<path d="M126.4 82.3245L125.084 78.1294H119.26L117.968 82.3245H114.821L120.317 65.874H124.169L129.617 82.3245H126.4ZM122.219 68.7022H122.102L120.012 75.4662H124.333L122.219 68.7022Z" fill="white"/>
<path d="M138.139 73.8872L136.448 70.4698H136.378V82.3245H133.442V65.874H136.848L141.78 74.3114L143.471 77.7288H143.541V65.874H146.477V82.3245H143.071L138.139 73.8872Z" fill="white"/>
<path d="M161.877 82.3245L160.562 78.1294H154.738L153.446 82.3245H150.299L155.795 65.874H159.646L165.095 82.3245H161.877ZM157.697 68.7022H157.579L155.489 75.4662H159.811L157.697 68.7022Z" fill="white"/>
<path d="M168.92 82.3245V65.874H172.02V79.5671H178.478V82.3245H168.92Z" fill="white"/>
<path d="M184.503 82.3245V75.8669L178.89 65.874H182.366L186.147 72.8266H186.194L189.881 65.874H193.263L187.627 75.8433V82.3245H184.503Z" fill="white"/>
<path d="M203.356 68.6315V82.3245H200.256V68.6315H195.606V65.874H208.006V68.6315H203.356Z" fill="white"/>
<path d="M211.157 82.3245V79.8263H213.318V68.3723H211.157V65.874H218.602V68.3723H216.418V79.8263H218.602V82.3245H211.157Z" fill="white"/>
<path d="M229.543 82.6074C228.463 82.6074 227.484 82.4345 226.607 82.0889C225.746 81.7275 225.003 81.1933 224.376 80.4862C223.766 79.7792 223.296 78.9072 222.967 77.8702C222.638 76.8175 222.474 75.5998 222.474 74.2171C222.474 72.8345 222.638 71.6089 222.967 70.5405C223.296 69.4564 223.766 68.5529 224.376 67.8302C225.003 67.0917 225.746 66.5339 226.607 66.1569C227.484 65.7798 228.463 65.5912 229.543 65.5912C231.015 65.5912 232.236 65.9055 233.207 66.5339C234.177 67.1624 234.952 68.113 235.532 69.3857L232.878 70.7998C232.643 70.0613 232.259 69.4721 231.727 69.0322C231.195 68.5765 230.467 68.3487 229.543 68.3487C228.384 68.3487 227.461 68.7415 226.772 69.5271C226.098 70.3127 225.762 71.4125 225.762 72.8266V75.4191C225.762 76.8489 226.098 77.9487 226.772 78.7186C227.461 79.4728 228.384 79.8499 229.543 79.8499C230.467 79.8499 231.218 79.5985 231.798 79.0957C232.393 78.5929 232.823 77.9723 233.089 77.2338L235.602 78.7186C235.007 79.9442 234.217 80.9026 233.23 81.5939C232.244 82.2696 231.015 82.6074 229.543 82.6074Z" fill="white"/>
<path d="M244.752 82.6074C243.343 82.6074 242.145 82.356 241.159 81.8532C240.188 81.3504 239.351 80.6905 238.646 79.8735L240.736 77.8466C241.3 78.5065 241.926 79.0093 242.615 79.355C243.32 79.7006 244.095 79.8735 244.94 79.8735C245.895 79.8735 246.615 79.6692 247.101 79.2607C247.586 78.8365 247.829 78.2708 247.829 77.5638C247.829 77.0139 247.672 76.5661 247.359 76.2204C247.046 75.8748 246.459 75.6234 245.598 75.4662L244.048 75.2306C240.775 74.7121 239.139 73.1173 239.139 70.4462C239.139 69.7078 239.272 69.04 239.538 68.443C239.82 67.8459 240.22 67.3353 240.736 66.911C241.253 66.4868 241.871 66.1647 242.592 65.9447C243.327 65.7091 244.157 65.5912 245.081 65.5912C246.318 65.5912 247.398 65.7955 248.322 66.204C249.246 66.6125 250.036 67.2174 250.694 68.0187L248.58 70.022C248.173 69.5192 247.68 69.1107 247.101 68.7965C246.521 68.4822 245.793 68.3251 244.917 68.3251C244.024 68.3251 243.351 68.4979 242.897 68.8436C242.458 69.1736 242.239 69.6449 242.239 70.2577C242.239 70.8862 242.419 71.3497 242.779 71.6482C243.14 71.9467 243.719 72.1667 244.517 72.3081L246.044 72.5909C247.704 72.8895 248.925 73.4237 249.708 74.1936C250.506 74.9477 250.905 76.0083 250.905 77.3753C250.905 78.1609 250.764 78.8758 250.483 79.52C250.216 80.1484 249.817 80.6984 249.285 81.1697C248.768 81.6254 248.126 81.9789 247.359 82.2303C246.608 82.4817 245.739 82.6074 244.752 82.6074Z" fill="white"/>
</g>
<defs>
<clipPath id="clip0_1_2">
<rect width="251" height="104.583" fill="white"/>
</clipPath>
</defs>
</svg>
