<svg width="590" height="384" fill="none" xmlns="http://www.w3.org/2000/svg"><path d="M63.578 18.192c-.736 0-1.403-.117-2-.352a4.155 4.155 0 0 1-1.52-1.088c-.416-.48-.736-1.072-.96-1.776-.224-.715-.336-1.541-.336-2.48 0-.939.112-1.77.336-2.496.224-.736.544-1.35.96-1.84.426-.501.933-.88 1.52-1.136.597-.256 1.264-.384 2-.384 1.002 0 1.834.213 2.496.64.661.427 1.189 1.072 1.584 1.936l-1.808.96c-.16-.501-.422-.901-.784-1.2-.363-.31-.859-.464-1.488-.464-.79 0-1.419.267-1.888.8-.459.533-.688 1.28-.688 2.24v1.76c0 .97.229 1.717.688 2.24.469.512 1.098.768 1.888.768.629 0 1.141-.17 1.536-.512.405-.341.698-.763.88-1.264l1.712 1.008c-.406.832-.944 1.483-1.616 1.952-.672.459-1.51.688-2.512.688Zm5.801-8.544h2.352l2.208 3.68h.064l2.176-3.68h2.288V18h-1.984v-5.824h-.064l-.576 1.088-1.92 3.168-1.92-3.168-.576-1.088h-.064V18H69.38V9.648Zm14.765 8.544a4.117 4.117 0 0 1-1.616-.304 3.427 3.427 0 0 1-1.216-.88 4.112 4.112 0 0 1-.768-1.376 5.748 5.748 0 0 1-.272-1.824c0-.672.091-1.275.272-1.808.182-.533.438-.987.768-1.36a3.426 3.426 0 0 1 1.216-.88 4.117 4.117 0 0 1 1.616-.304c.598 0 1.136.101 1.616.304.48.203.886.496 1.216.88.342.373.603.827.784 1.36.182.533.272 1.136.272 1.808 0 .672-.09 1.28-.272 1.824a3.962 3.962 0 0 1-.784 1.376c-.33.384-.736.677-1.216.88a4.116 4.116 0 0 1-1.616.304Zm0-1.648c.544 0 .971-.165 1.28-.496.31-.33.464-.816.464-1.456V13.04c0-.63-.154-1.11-.464-1.44-.309-.33-.736-.496-1.28-.496-.533 0-.954.165-1.264.496-.309.33-.464.81-.464 1.44v1.552c0 .64.155 1.125.464 1.456.31.33.731.496 1.264.496Zm4.602-.176h1.056c.309-.448.538-1.013.688-1.696.149-.683.224-1.563.224-2.64V9.648h6.416v6.72h1.424v3.872h-1.856V18h-6.096v2.24h-1.856v-3.872Zm6.336 0V11.28h-2.416v.848c0 1.141-.07 2.048-.208 2.72-.14.661-.31 1.168-.512 1.52h3.136Zm8.314 1.824c-.619 0-1.173-.101-1.664-.304a3.66 3.66 0 0 1-1.232-.88 4.105 4.105 0 0 1-.768-1.376 5.748 5.748 0 0 1-.272-1.824c0-.661.085-1.259.256-1.792.181-.533.437-.987.768-1.36a3.25 3.25 0 0 1 1.216-.88c.48-.213 1.024-.32 1.632-.32.651 0 1.216.112 1.696.336.48.224.875.528 1.184.912.309.384.539.832.688 1.344.16.501.24 1.04.24 1.616v.672h-5.552v.208c0 .608.171 1.099.512 1.472.341.363.848.544 1.52.544.512 0 .928-.107 1.248-.32.331-.213.624-.485.88-.816l1.104 1.232c-.341.48-.811.859-1.408 1.136-.587.267-1.269.4-2.048.4Zm-.032-7.2c-.544 0-.976.181-1.296.544-.32.363-.48.832-.48 1.408v.128h3.424v-.144c0-.576-.144-1.04-.432-1.392-.277-.363-.683-.544-1.216-.544Zm4.602 5.376h1.088c.106-.16.202-.352.288-.576.096-.224.176-.496.24-.816.064-.33.112-.72.144-1.168.042-.459.064-.992.064-1.6v-2.56h6.352V18h-2.048v-6.72h-2.352v1.024c0 .757-.027 1.419-.08 1.984a9.332 9.332 0 0 1-.24 1.44 4.233 4.233 0 0 1-.368 1.024 2.672 2.672 0 0 1-.464.656 2.015 2.015 0 0 1-.832.512c-.31.096-.688.144-1.136.144h-.656v-1.696Zm10.523-6.72h2v3.728l-.176 1.952h.064l.976-1.776 2.608-3.904h1.84V18h-2v-3.728l.176-1.968h-.064l-.976 1.792L120.329 18h-1.84V9.648Zm9.687 0h2.048v1.376h.064c.15-.48.432-.859.848-1.136.416-.288.902-.432 1.456-.432 1.067 0 1.878.379 2.432 1.136.566.747.848 1.819.848 3.216 0 1.408-.282 2.49-.848 3.248-.554.757-1.365 1.136-2.432 1.136-.554 0-1.04-.144-1.456-.432a2.25 2.25 0 0 1-.848-1.152h-.064V21.2h-2.048V9.648Zm3.76 6.848c.534 0 .966-.176 1.296-.528.331-.352.496-.827.496-1.424v-1.44c0-.597-.165-1.072-.496-1.424-.33-.363-.762-.544-1.296-.544-.49 0-.901.123-1.232.368-.32.245-.48.57-.48.976v2.656c0 .437.16.773.48 1.008.331.235.742.352 1.232.352Zm9.146 1.696a4.118 4.118 0 0 1-1.616-.304 3.426 3.426 0 0 1-1.216-.88 4.098 4.098 0 0 1-.768-1.376 5.756 5.756 0 0 1-.272-1.824c0-.672.091-1.275.272-1.808a3.92 3.92 0 0 1 .768-1.36 3.425 3.425 0 0 1 1.216-.88 4.118 4.118 0 0 1 1.616-.304c.597 0 1.136.101 1.616.304.48.203.885.496 1.216.88.341.373.603.827.784 1.36.181.533.272 1.136.272 1.808 0 .672-.091 1.28-.272 1.824a3.964 3.964 0 0 1-.784 1.376 3.25 3.25 0 0 1-1.216.88 4.118 4.118 0 0 1-1.616.304Zm0-1.648c.544 0 .971-.165 1.28-.496.309-.33.464-.816.464-1.456V13.04c0-.63-.155-1.11-.464-1.44-.309-.33-.736-.496-1.28-.496-.533 0-.955.165-1.264.496-.309.33-.464.81-.464 1.44v1.552c0 .64.155 1.125.464 1.456.309.33.731.496 1.264.496Zm5.704-6.896h4.592c.746 0 1.317.192 1.712.576.394.373.592.88.592 1.52 0 1.056-.576 1.664-1.728 1.824v.064c.682.064 1.194.261 1.536.592.341.33.512.773.512 1.328 0 .725-.224 1.317-.672 1.776-.448.448-1.072.672-1.872.672h-4.672V9.648Zm4.256 6.864c.277 0 .49-.07.64-.208.149-.15.224-.357.224-.624v-.448c0-.267-.075-.47-.224-.608-.15-.15-.363-.224-.64-.224h-2.256v2.112h2.256Zm-.24-3.408c.245 0 .437-.07.576-.208.149-.139.224-.33.224-.576v-.4c0-.245-.075-.437-.224-.576-.139-.139-.331-.208-.576-.208h-2.016v1.968h2.016ZM162.055 18c-.448 0-.806-.128-1.072-.384-.256-.267-.416-.619-.48-1.056h-.096c-.139.544-.422.955-.848 1.232-.427.267-.955.4-1.584.4-.854 0-1.51-.224-1.968-.672-.459-.448-.688-1.045-.688-1.792 0-.864.309-1.504.928-1.92.618-.427 1.498-.64 2.64-.64h1.424v-.608c0-.47-.123-.832-.368-1.088-.246-.256-.64-.384-1.184-.384-.48 0-.87.107-1.168.32a3.004 3.004 0 0 0-.736.736l-1.216-1.088c.309-.48.72-.864 1.232-1.152.512-.299 1.189-.448 2.032-.448 1.13 0 1.989.256 2.576.768.586.512.88 1.248.88 2.208v3.936h.832V18h-1.136Zm-3.392-1.296c.458 0 .848-.101 1.168-.304.32-.203.48-.501.48-.896V14.4h-1.312c-1.067 0-1.6.341-1.6 1.024v.272c0 .341.106.597.32.768.224.16.538.24.944.24Zm6.185-7.056h2.048v3.28h3.216v-3.28h2.048V18h-2.048v-3.44h-3.216V18h-2.048V9.648Zm9.688 0h2.048v3.28h3.216v-3.28h2.048V18H179.8v-3.44h-3.216V18h-2.048V9.648ZM190.367 18c-.448 0-.805-.128-1.072-.384-.256-.267-.416-.619-.48-1.056h-.096c-.139.544-.421.955-.848 1.232-.427.267-.955.4-1.584.4-.853 0-1.509-.224-1.968-.672-.459-.448-.688-1.045-.688-1.792 0-.864.309-1.504.928-1.92.619-.427 1.499-.64 2.64-.64h1.424v-.608c0-.47-.123-.832-.368-1.088-.245-.256-.64-.384-1.184-.384-.48 0-.869.107-1.168.32a3.021 3.021 0 0 0-.736.736l-1.216-1.088c.309-.48.72-.864 1.232-1.152.512-.299 1.189-.448 2.032-.448 1.131 0 1.989.256 2.576.768s.88 1.248.88 2.208v3.936h.832V18h-1.136Zm-3.392-1.296c.459 0 .848-.101 1.168-.304.32-.203.48-.501.48-.896V14.4h-1.312c-1.067 0-1.6.341-1.6 1.024v.272c0 .341.107.597.32.768.224.16.539.24.944.24Zm5.674-.336h.896l.432-.88c.202-.427.506-.667.912-.72v-.08c-.64-.075-1.152-.304-1.536-.688-.374-.384-.56-.928-.56-1.632 0-.427.069-.805.208-1.136.149-.341.346-.63.592-.864.256-.235.554-.41.896-.528.352-.128.73-.192 1.136-.192h4.304V18h-2.048v-2.992h-1.552l-.88 1.808c-.214.448-.459.757-.736.928-.267.17-.603.256-1.008.256h-1.056v-1.632Zm5.232-2.88v-2.32h-1.84c-.363 0-.651.085-.864.256-.203.17-.304.427-.304.768v.336c0 .31.101.55.304.72.213.16.501.24.864.24h1.84Zm13.306-3.84h1.92l-3.36 9.84c-.107.299-.23.555-.368.768a1.797 1.797 0 0 1-.464.544c-.182.139-.4.24-.656.304a3.722 3.722 0 0 1-.896.096h-1.232v-1.632h1.504l.384-1.168-2.992-8.752h2.032l1.456 4.416.544 2.112h.096l.576-2.112 1.456-4.416Zm3.27 0h2.048v1.376h.064c.15-.48.432-.859.848-1.136.416-.288.902-.432 1.456-.432 1.067 0 1.878.379 2.432 1.136.566.747.848 1.819.848 3.216 0 1.408-.282 2.49-.848 3.248-.554.757-1.365 1.136-2.432 1.136-.554 0-1.04-.144-1.456-.432a2.25 2.25 0 0 1-.848-1.152h-.064V21.2h-2.048V9.648Zm3.76 6.848c.534 0 .966-.176 1.296-.528.331-.352.496-.827.496-1.424v-1.44c0-.597-.165-1.072-.496-1.424-.33-.363-.762-.544-1.296-.544-.49 0-.901.123-1.232.368-.32.245-.48.57-.48.976v2.656c0 .437.16.773.48 1.008.331.235.742.352 1.232.352Zm9.146 1.696a4.118 4.118 0 0 1-1.616-.304 3.435 3.435 0 0 1-1.216-.88 4.133 4.133 0 0 1-.768-1.376 5.756 5.756 0 0 1-.272-1.824c0-.672.091-1.275.272-1.808.182-.533.438-.987.768-1.36a3.434 3.434 0 0 1 1.216-.88 4.118 4.118 0 0 1 1.616-.304c.598 0 1.136.101 1.616.304.48.203.886.496 1.216.88.342.373.603.827.784 1.36.182.533.272 1.136.272 1.808 0 .672-.09 1.28-.272 1.824a3.948 3.948 0 0 1-.784 1.376c-.33.384-.736.677-1.216.88a4.114 4.114 0 0 1-1.616.304Zm0-1.648c.544 0 .971-.165 1.28-.496.31-.33.464-.816.464-1.456V13.04c0-.63-.154-1.11-.464-1.44-.309-.33-.736-.496-1.28-.496-.533 0-.954.165-1.264.496-.309.33-.464.81-.464 1.44v1.552c0 .64.155 1.125.464 1.456.31.33.731.496 1.264.496Zm4.973-.176h.88l.912-1.872c.213-.427.522-.683.928-.768v-.08c-.395-.096-.699-.363-.912-.8l-.768-1.568h-.88V9.648h.896c.416 0 .757.085 1.024.256.266.17.501.459.704.864l1.056 2.16h1.184v-3.28h2.048v3.28h1.168l1.072-2.16c.202-.405.437-.693.704-.864.266-.17.602-.256 1.008-.256h.896v1.632h-.88l-.752 1.568c-.214.437-.518.704-.912.8v.08c.405.085.714.341.928.768l.912 1.872h.88V18h-1.008c-.406 0-.747-.085-1.024-.256-.267-.17-.507-.48-.72-.928l-1.104-2.272h-1.168V18h-2.048v-3.456h-1.184l-1.104 2.272c-.214.448-.454.757-.72.928-.267.17-.603.256-1.008.256h-1.008v-1.632ZM252.258 18c-.448 0-.806-.128-1.072-.384-.256-.267-.416-.619-.48-1.056h-.096c-.139.544-.422.955-.848 1.232-.427.267-.955.4-1.584.4-.854 0-1.51-.224-1.968-.672-.459-.448-.688-1.045-.688-1.792 0-.864.309-1.504.928-1.92.618-.427 1.498-.64 2.64-.64h1.424v-.608c0-.47-.123-.832-.368-1.088-.246-.256-.64-.384-1.184-.384-.48 0-.87.107-1.168.32a3.004 3.004 0 0 0-.736.736l-1.216-1.088c.309-.48.72-.864 1.232-1.152.512-.299 1.189-.448 2.032-.448 1.13 0 1.989.256 2.576.768.586.512.88 1.248.88 2.208v3.936h.832V18h-1.136Zm-3.392-1.296c.458 0 .848-.101 1.168-.304.32-.203.48-.501.48-.896V14.4h-1.312c-1.067 0-1.6.341-1.6 1.024v.272c0 .341.106.597.32.768.224.16.538.24.944.24Zm6.185-7.056h2v3.728l-.176 1.952h.064l.976-1.776 2.608-3.904h1.84V18h-2v-3.728l.176-1.968h-.064l-.976 1.792L256.891 18h-1.84V9.648Zm3.664-.992c-.672 0-1.21-.139-1.616-.416-.405-.288-.725-.693-.96-1.216l-.336-.752 1.632-.64.528 1.536c.086.032.198.059.336.08a5.44 5.44 0 0 0 .832 0c.139-.021.251-.048.336-.08l.528-1.536 1.632.64-.336.752c-.234.523-.554.928-.96 1.216-.405.277-.944.416-1.616.416Zm6.024.992h2.048v3.28h3.216v-3.28h2.048V18h-2.048v-3.44h-3.216V18h-2.048V9.648Zm12.999 8.544a4.118 4.118 0 0 1-1.616-.304 3.435 3.435 0 0 1-1.216-.88 4.133 4.133 0 0 1-.768-1.376 5.756 5.756 0 0 1-.272-1.824c0-.672.091-1.275.272-1.808.182-.533.438-.987.768-1.36a3.434 3.434 0 0 1 1.216-.88 4.118 4.118 0 0 1 1.616-.304c.598 0 1.136.101 1.616.304.48.203.886.496 1.216.88.342.373.603.827.784 1.36.182.533.272 1.136.272 1.808 0 .672-.09 1.28-.272 1.824a3.948 3.948 0 0 1-.784 1.376c-.33.384-.736.677-1.216.88a4.114 4.114 0 0 1-1.616.304Zm0-1.648c.544 0 .971-.165 1.28-.496.31-.33.464-.816.464-1.456V13.04c0-.63-.154-1.11-.464-1.44-.309-.33-.736-.496-1.28-.496-.533 0-.954.165-1.264.496-.309.33-.464.81-.464 1.44v1.552c0 .64.155 1.125.464 1.456.31.33.731.496 1.264.496Zm9 1.648c-.619 0-1.168-.101-1.648-.304a3.242 3.242 0 0 1-1.216-.88 4.04 4.04 0 0 1-.736-1.376 6.068 6.068 0 0 1-.256-1.824c0-.672.085-1.275.256-1.808.17-.533.416-.987.736-1.36.33-.384.736-.677 1.216-.88.48-.203 1.029-.304 1.648-.304.842 0 1.536.187 2.08.56.554.373.954.89 1.2 1.552l-1.68.752a1.678 1.678 0 0 0-.544-.864c-.256-.235-.608-.352-1.056-.352-.576 0-1.008.181-1.296.544-.278.363-.416.837-.416 1.424v1.52c0 .587.138 1.061.416 1.424.288.352.72.528 1.296.528.49 0 .869-.123 1.136-.368.266-.256.474-.57.624-.944l1.568.752c-.278.736-.699 1.29-1.264 1.664-.566.363-1.254.544-2.064.544Zm6.696-6.912h-2.544V9.648h7.136v1.632h-2.544V18h-2.048v-6.72Zm6.102-1.632h2.048v2.64h2.24c.416 0 .794.064 1.136.192.352.128.65.315.896.56.256.235.453.528.592.88.149.352.224.757.224 1.216 0 .459-.075.87-.224 1.232-.139.352-.336.65-.592.896a2.53 2.53 0 0 1-.896.544 3.17 3.17 0 0 1-1.12.192h-4.304V9.648Zm3.888 6.832c.362 0 .645-.085.848-.256.213-.17.32-.427.32-.768v-.624c0-.341-.107-.597-.32-.768-.203-.17-.486-.256-.848-.256h-1.84v2.672h1.84Z" fill="#F27E30"/><path d="M312.098 9.648h2v3.728l-.176 1.952h.064l.976-1.776 2.608-3.904h1.84V18h-2v-3.728l.176-1.968h-.064l-.976 1.792L313.938 18h-1.84V9.648Z" fill="#8799AB"/><path d="M329.663 17.12h-.064c-.406.715-1.014 1.072-1.824 1.072-.928 0-1.611-.341-2.048-1.024-.438-.693-.656-1.808-.656-3.344 0-1.536.218-2.645.656-3.328.437-.693 1.12-1.04 2.048-1.04.416 0 .773.096 1.072.288.298.181.549.448.752.8h.064V6.64h2.048v3.904h.064c.202-.352.453-.619.752-.8.298-.192.656-.288 1.072-.288.928 0 1.61.347 2.048 1.04.437.683.656 1.792.656 3.328 0 1.536-.219 2.65-.656 3.344-.438.683-1.12 1.024-2.048 1.024-.811 0-1.419-.357-1.824-1.072h-.064v4.08h-2.048v-4.08Zm-1.12-.464c.405 0 .693-.085.864-.256.17-.17.256-.41.256-.72v-3.712c0-.31-.086-.55-.256-.72-.171-.181-.459-.272-.864-.272-.48 0-.827.165-1.04.496-.203.32-.304.843-.304 1.568v1.568c0 .725.101 1.248.304 1.568.213.32.56.48 1.04.48Zm4.288 0c.48 0 .821-.16 1.024-.48.213-.32.32-.843.32-1.568V13.04c0-.725-.107-1.248-.32-1.568-.203-.33-.544-.496-1.024-.496-.406 0-.694.09-.864.272-.171.17-.256.41-.256.72v3.712c0 .31.085.55.256.72.17.17.458.256.864.256ZM344.32 18c-.448 0-.805-.128-1.072-.384-.256-.267-.416-.619-.48-1.056h-.096c-.138.544-.421.955-.848 1.232-.426.267-.954.4-1.584.4-.853 0-1.509-.224-1.968-.672-.458-.448-.688-1.045-.688-1.792 0-.864.31-1.504.928-1.92.619-.427 1.499-.64 2.64-.64h1.424v-.608c0-.47-.122-.832-.368-1.088-.245-.256-.64-.384-1.184-.384-.48 0-.869.107-1.168.32a3.021 3.021 0 0 0-.736.736l-1.216-1.088c.31-.48.72-.864 1.232-1.152.512-.299 1.19-.448 2.032-.448 1.131 0 1.99.256 2.576.768.587.512.88 1.248.88 2.208v3.936h.832V18h-1.136Zm-3.392-1.296c.459 0 .848-.101 1.168-.304.32-.203.48-.501.48-.896V14.4h-1.312c-1.066 0-1.6.341-1.6 1.024v.272c0 .341.107.597.32.768.224.16.539.24.944.24Zm6.186-7.056h2.048v3.28h1.344l1.264-2.192c.234-.405.474-.688.72-.848.245-.16.57-.24.976-.24h.912v1.632h-.896l-.88 1.536c-.15.277-.294.475-.432.592a1.434 1.434 0 0 1-.496.24v.08c.192.043.362.117.512.224.16.107.314.293.464.56l1.04 1.856h.88V18h-1.04c-.406 0-.742-.085-1.008-.256-.256-.17-.502-.464-.736-.88l-1.28-2.32h-1.344V18h-2.048V9.648Zm10.945 1.632h-2.544V9.648h7.136v1.632h-2.544V18h-2.048v-6.72Zm6.102-1.632h2v3.728l-.176 1.952h.064l.976-1.776 2.608-3.904h1.84V18h-2v-3.728l.176-1.968h-.064l-.976 1.792L366.001 18h-1.84V9.648Zm14.343 4.72h-.08c-.213.32-.501.581-.864.784-.363.192-.827.288-1.392.288-1.803 0-2.704-.955-2.704-2.864V9.648h2.048v2.816c0 .448.112.773.336.976.224.203.581.304 1.072.304.501 0 .891-.08 1.168-.24.277-.16.416-.379.416-.656v-3.2h2.048V18h-2.048v-3.632Zm7.798 3.824c-.618 0-1.173-.101-1.664-.304a3.67 3.67 0 0 1-1.232-.88 4.133 4.133 0 0 1-.768-1.376 5.756 5.756 0 0 1-.272-1.824c0-.661.086-1.259.256-1.792.182-.533.438-.987.768-1.36a3.25 3.25 0 0 1 1.216-.88c.48-.213 1.024-.32 1.632-.32.651 0 1.216.112 1.696.336.48.224.875.528 1.184.912.31.384.539.832.688 1.344.16.501.24 1.04.24 1.616v.672h-5.552v.208c0 .608.171 1.099.512 1.472.342.363.848.544 1.52.544.512 0 .928-.107 1.248-.32.331-.213.624-.485.88-.816l1.104 1.232c-.341.48-.81.859-1.408 1.136-.586.267-1.269.4-2.048.4Zm-.032-7.2c-.544 0-.976.181-1.296.544-.32.363-.48.832-.48 1.408v.128h3.424v-.144c0-.576-.144-1.04-.432-1.392-.277-.363-.682-.544-1.216-.544Zm8.874 7.2c-.619 0-1.168-.101-1.648-.304a3.25 3.25 0 0 1-1.216-.88 4.057 4.057 0 0 1-.736-1.376 6.068 6.068 0 0 1-.256-1.824c0-.672.085-1.275.256-1.808.171-.533.416-.987.736-1.36a3.25 3.25 0 0 1 1.216-.88c.48-.203 1.029-.304 1.648-.304.843 0 1.536.187 2.08.56.555.373.955.89 1.2 1.552l-1.68.752a1.672 1.672 0 0 0-.544-.864c-.256-.235-.608-.352-1.056-.352-.576 0-1.008.181-1.296.544-.277.363-.416.837-.416 1.424v1.52c0 .587.139 1.061.416 1.424.288.352.72.528 1.296.528.491 0 .869-.123 1.136-.368.267-.256.475-.57.624-.944l1.568.752c-.277.736-.699 1.29-1.264 1.664-.565.363-1.253.544-2.064.544Zm4.907-8.544h2.048v3.28h1.344l1.264-2.192c.235-.405.475-.688.72-.848.246-.16.571-.24.976-.24h.912v1.632h-.896l-.88 1.536c-.149.277-.293.475-.432.592a1.425 1.425 0 0 1-.496.24v.08c.192.043.363.117.512.224.16.107.315.293.464.56l1.04 1.856h.88V18h-1.04c-.405 0-.741-.085-1.008-.256-.256-.17-.501-.464-.736-.88l-1.28-2.32h-1.344V18h-2.048V9.648ZM415.305 18c-.448 0-.806-.128-1.072-.384-.256-.267-.416-.619-.48-1.056h-.096c-.139.544-.422.955-.848 1.232-.427.267-.955.4-1.584.4-.854 0-1.51-.224-1.968-.672-.459-.448-.688-1.045-.688-1.792 0-.864.309-1.504.928-1.92.618-.427 1.498-.64 2.64-.64h1.424v-.608c0-.47-.123-.832-.368-1.088-.246-.256-.64-.384-1.184-.384-.48 0-.87.107-1.168.32a3.004 3.004 0 0 0-.736.736l-1.216-1.088c.309-.48.72-.864 1.232-1.152.512-.299 1.189-.448 2.032-.448 1.13 0 1.989.256 2.576.768.586.512.88 1.248.88 2.208v3.936h.832V18h-1.136Zm-3.392-1.296c.458 0 .848-.101 1.168-.304.32-.203.48-.501.48-.896V14.4h-1.312c-1.067 0-1.6.341-1.6 1.024v.272c0 .341.106.597.32.768.224.16.538.24.944.24Zm5.673-.336h.896l.432-.88c.203-.427.507-.667.912-.72v-.08c-.64-.075-1.152-.304-1.536-.688-.373-.384-.56-.928-.56-1.632 0-.427.069-.805.208-1.136.149-.341.347-.63.592-.864.256-.235.555-.41.896-.528a3.3 3.3 0 0 1 1.136-.192h4.304V18h-2.048v-2.992h-1.552l-.88 1.808c-.213.448-.459.757-.736.928-.267.17-.603.256-1.008.256h-1.056v-1.632Zm5.232-2.88v-2.32h-1.84c-.363 0-.651.085-.864.256-.203.17-.304.427-.304.768v.336c0 .31.101.55.304.72.213.16.501.24.864.24h1.84Zm13.306-3.84h1.92l-3.36 9.84a3.628 3.628 0 0 1-.368.768 1.783 1.783 0 0 1-.464.544c-.181.139-.4.24-.656.304a3.716 3.716 0 0 1-.896.096h-1.232v-1.632h1.504l.384-1.168-2.992-8.752h2.032l1.456 4.416.544 2.112h.096l.576-2.112 1.456-4.416Zm3.271 0h2.048v1.376h.064c.149-.48.432-.859.848-1.136.416-.288.901-.432 1.456-.432 1.067 0 1.877.379 2.432 1.136.565.747.848 1.819.848 3.216 0 1.408-.283 2.49-.848 3.248-.555.757-1.365 1.136-2.432 1.136-.555 0-1.04-.144-1.456-.432a2.25 2.25 0 0 1-.848-1.152h-.064V21.2h-2.048V9.648Zm3.76 6.848c.533 0 .965-.176 1.296-.528.331-.352.496-.827.496-1.424v-1.44c0-.597-.165-1.072-.496-1.424-.331-.363-.763-.544-1.296-.544-.491 0-.901.123-1.232.368-.32.245-.48.57-.48.976v2.656c0 .437.16.773.48 1.008.331.235.741.352 1.232.352Zm9.146 1.696a4.114 4.114 0 0 1-1.616-.304 3.417 3.417 0 0 1-1.216-.88 4.098 4.098 0 0 1-.768-1.376 5.728 5.728 0 0 1-.272-1.824c0-.672.09-1.275.272-1.808a3.92 3.92 0 0 1 .768-1.36 3.417 3.417 0 0 1 1.216-.88 4.115 4.115 0 0 1 1.616-.304c.597 0 1.136.101 1.616.304.48.203.885.496 1.216.88.341.373.602.827.784 1.36.181.533.272 1.136.272 1.808 0 .672-.091 1.28-.272 1.824a3.98 3.98 0 0 1-.784 1.376 3.25 3.25 0 0 1-1.216.88 4.118 4.118 0 0 1-1.616.304Zm0-1.648c.544 0 .97-.165 1.28-.496.309-.33.464-.816.464-1.456V13.04c0-.63-.155-1.11-.464-1.44-.31-.33-.736-.496-1.28-.496-.534 0-.955.165-1.264.496-.31.33-.464.81-.464 1.44v1.552c0 .64.154 1.125.464 1.456.309.33.73.496 1.264.496Zm4.972-.176h.88l.912-1.872c.214-.427.523-.683.928-.768v-.08c-.394-.096-.698-.363-.912-.8l-.768-1.568h-.88V9.648h.896c.416 0 .758.085 1.024.256.267.17.502.459.704.864l1.056 2.16h1.184v-3.28h2.048v3.28h1.168l1.072-2.16c.203-.405.438-.693.704-.864.267-.17.603-.256 1.008-.256h.896v1.632h-.88l-.752 1.568c-.213.437-.517.704-.912.8v.08c.406.085.715.341.928.768l.912 1.872h.88V18h-1.008c-.405 0-.746-.085-1.024-.256-.266-.17-.506-.48-.72-.928l-1.104-2.272h-1.168V18h-2.048v-3.456h-1.184l-1.104 2.272c-.213.448-.453.757-.72.928-.266.17-.602.256-1.008.256h-1.008v-1.632ZM477.195 18c-.448 0-.805-.128-1.072-.384-.256-.267-.416-.619-.48-1.056h-.096c-.138.544-.421.955-.848 1.232-.426.267-.954.4-1.584.4-.853 0-1.509-.224-1.968-.672-.458-.448-.688-1.045-.688-1.792 0-.864.31-1.504.928-1.92.619-.427 1.499-.64 2.64-.64h1.424v-.608c0-.47-.122-.832-.368-1.088-.245-.256-.64-.384-1.184-.384-.48 0-.869.107-1.168.32a3.021 3.021 0 0 0-.736.736l-1.216-1.088c.31-.48.72-.864 1.232-1.152.512-.299 1.19-.448 2.032-.448 1.131 0 1.99.256 2.576.768.587.512.88 1.248.88 2.208v3.936h.832V18h-1.136Zm-3.392-1.296c.459 0 .848-.101 1.168-.304.32-.203.48-.501.48-.896V14.4h-1.312c-1.066 0-1.6.341-1.6 1.024v.272c0 .341.107.597.32.768.224.16.539.24.944.24Zm6.186-7.056h2v3.728l-.176 1.952h.064l.976-1.776 2.608-3.904h1.84V18h-2v-3.728l.176-1.968h-.064l-.976 1.792L481.829 18h-1.84V9.648Zm3.664-.992c-.672 0-1.211-.139-1.616-.416-.406-.288-.726-.693-.96-1.216l-.336-.752 1.632-.64.528 1.536c.085.032.197.059.336.08a5.4 5.4 0 0 0 .832 0c.138-.021.25-.048.336-.08l.528-1.536 1.632.64-.336.752c-.235.523-.555.928-.96 1.216-.406.277-.944.416-1.616.416Zm6.023.992h2.048v3.28h3.216v-3.28h2.048V18h-2.048v-3.44h-3.216V18h-2.048V9.648Zm13 8.544a4.114 4.114 0 0 1-1.616-.304 3.417 3.417 0 0 1-1.216-.88 4.098 4.098 0 0 1-.768-1.376 5.728 5.728 0 0 1-.272-1.824c0-.672.09-1.275.272-1.808a3.92 3.92 0 0 1 .768-1.36 3.417 3.417 0 0 1 1.216-.88 4.115 4.115 0 0 1 1.616-.304c.597 0 1.136.101 1.616.304.48.203.885.496 1.216.88.341.373.602.827.784 1.36.181.533.272 1.136.272 1.808 0 .672-.091 1.28-.272 1.824a3.98 3.98 0 0 1-.784 1.376 3.25 3.25 0 0 1-1.216.88 4.118 4.118 0 0 1-1.616.304Zm0-1.648c.544 0 .97-.165 1.28-.496.309-.33.464-.816.464-1.456V13.04c0-.63-.155-1.11-.464-1.44-.31-.33-.736-.496-1.28-.496-.534 0-.955.165-1.264.496-.31.33-.464.81-.464 1.44v1.552c0 .64.154 1.125.464 1.456.309.33.73.496 1.264.496Zm8.999 1.648c-.618 0-1.168-.101-1.648-.304a3.25 3.25 0 0 1-1.216-.88 4.057 4.057 0 0 1-.736-1.376 6.1 6.1 0 0 1-.256-1.824c0-.672.086-1.275.256-1.808.171-.533.416-.987.736-1.36a3.25 3.25 0 0 1 1.216-.88c.48-.203 1.03-.304 1.648-.304.843 0 1.536.187 2.08.56.555.373.955.89 1.2 1.552l-1.68.752a1.672 1.672 0 0 0-.544-.864c-.256-.235-.608-.352-1.056-.352-.576 0-1.008.181-1.296.544-.277.363-.416.837-.416 1.424v1.52c0 .587.139 1.061.416 1.424.288.352.72.528 1.296.528.491 0 .87-.123 1.136-.368.267-.256.475-.57.624-.944l1.568.752c-.277.736-.698 1.29-1.264 1.664-.565.363-1.253.544-2.064.544Zm6.697-6.912h-2.544V9.648h7.136v1.632h-2.544V18h-2.048v-6.72Zm6.101-1.632h2.048v2.64h2.24c.416 0 .795.064 1.136.192.352.128.651.315.896.56.256.235.453.528.592.88.149.352.224.757.224 1.216 0 .459-.075.87-.224 1.232-.139.352-.336.65-.592.896a2.522 2.522 0 0 1-.896.544 3.166 3.166 0 0 1-1.12.192h-4.304V9.648Zm3.888 6.832c.363 0 .645-.085.848-.256.213-.17.32-.427.32-.768v-.624c0-.341-.107-.597-.32-.768-.203-.17-.485-.256-.848-.256h-1.84v2.672h1.84Z" fill="#2F8FFC"/><path d="M6.955 52.4H1.459v-1.032l2.736-2.52c.392-.36.72-.74.984-1.14.264-.408.396-.816.396-1.224v-.144c0-.464-.128-.84-.384-1.128-.256-.288-.644-.432-1.164-.432-.256 0-.48.036-.672.108-.192.072-.36.172-.504.3-.136.128-.252.28-.348.456-.088.168-.16.352-.216.552l-.9-.348c.08-.248.188-.488.324-.72.144-.24.32-.452.528-.636a2.58 2.58 0 0 1 .768-.444c.304-.112.66-.168 1.068-.168.408 0 .772.06 1.092.18.32.12.588.288.804.504.216.216.38.472.492.768.12.296.18.624.18.984 0 .328-.048.632-.144.912-.088.28-.212.548-.372.804-.16.248-.356.492-.588.732-.224.24-.468.48-.732.72L2.55 51.512h4.404v.888Zm4.399.144c-1 0-1.732-.38-2.196-1.14-.456-.76-.684-1.824-.684-3.192s.228-2.432.684-3.192c.464-.76 1.196-1.14 2.196-1.14 1 0 1.728.38 2.184 1.14.464.76.696 1.824.696 3.192s-.232 2.432-.696 3.192c-.456.76-1.184 1.14-2.184 1.14Zm0-.876c.328 0 .608-.068.84-.204a1.56 1.56 0 0 0 .564-.576c.144-.248.248-.54.312-.876.072-.336.108-.708.108-1.116v-1.368c0-.408-.036-.78-.108-1.116a2.762 2.762 0 0 0-.312-.876 1.56 1.56 0 0 0-.564-.576c-.232-.136-.512-.204-.84-.204-.328 0-.608.068-.84.204a1.56 1.56 0 0 0-.564.576c-.144.248-.252.54-.324.876a5.982 5.982 0 0 0-.096 1.116v1.368c0 .408.032.78.096 1.116.072.336.18.628.324.876.144.248.332.44.564.576.232.136.512.204.84.204Zm7.195.876c-1 0-1.732-.38-2.196-1.14-.456-.76-.684-1.824-.684-3.192s.228-2.432.684-3.192c.464-.76 1.196-1.14 2.196-1.14 1 0 1.728.38 2.184 1.14.464.76.696 1.824.696 3.192s-.232 2.432-.696 3.192c-.456.76-1.184 1.14-2.184 1.14Zm0-.876c.328 0 .608-.068.84-.204a1.56 1.56 0 0 0 .564-.576c.144-.248.248-.54.312-.876.072-.336.108-.708.108-1.116v-1.368c0-.408-.036-.78-.108-1.116a2.762 2.762 0 0 0-.312-.876 1.56 1.56 0 0 0-.564-.576c-.232-.136-.512-.204-.84-.204-.328 0-.608.068-.84.204a1.56 1.56 0 0 0-.564.576c-.144.248-.252.54-.324.876a5.982 5.982 0 0 0-.096 1.116v1.368c0 .408.032.78.096 1.116.072.336.18.628.324.876.144.248.332.44.564.576.232.136.512.204.84.204Zm7.195.876c-1 0-1.732-.38-2.195-1.14-.456-.76-.684-1.824-.684-3.192s.228-2.432.684-3.192c.463-.76 1.195-1.14 2.195-1.14 1 0 1.729.38 2.184 1.14.464.76.697 1.824.697 3.192s-.233 2.432-.697 3.192c-.456.76-1.184 1.14-2.184 1.14Zm0-.876c.329 0 .608-.068.84-.204a1.56 1.56 0 0 0 .564-.576c.145-.248.248-.54.313-.876.072-.336.108-.708.108-1.116v-1.368c0-.408-.037-.78-.108-1.116a2.762 2.762 0 0 0-.313-.876 1.56 1.56 0 0 0-.564-.576c-.232-.136-.511-.204-.84-.204-.328 0-.607.068-.84.204a1.56 1.56 0 0 0-.564.576c-.143.248-.252.54-.323.876a5.982 5.982 0 0 0-.096 1.116v1.368c0 .408.032.78.096 1.116.072.336.18.628.323.876.145.248.332.44.564.576.233.136.512.204.84.204Zm5.228-.672c.256 0 .44.068.552.204.12.128.18.296.18.504v.168c0 .328-.096.688-.288 1.08-.192.4-.46.748-.804 1.044h-.804c.24-.256.432-.5.576-.732a2.21 2.21 0 0 0 .324-.756.602.602 0 0 1-.36-.228.739.739 0 0 1-.108-.408v-.168c0-.208.056-.376.168-.504.12-.136.308-.204.564-.204Zm5.237 1.548c-1 0-1.732-.38-2.196-1.14-.456-.76-.684-1.824-.684-3.192s.228-2.432.684-3.192c.464-.76 1.196-1.14 2.196-1.14 1 0 1.728.38 2.184 1.14.464.76.696 1.824.696 3.192s-.232 2.432-.696 3.192c-.456.76-1.184 1.14-2.184 1.14Zm0-.876c.328 0 .608-.068.84-.204a1.56 1.56 0 0 0 .564-.576c.144-.248.248-.54.312-.876.072-.336.108-.708.108-1.116v-1.368c0-.408-.036-.78-.108-1.116a2.762 2.762 0 0 0-.312-.876 1.56 1.56 0 0 0-.564-.576c-.232-.136-.512-.204-.84-.204-.328 0-.608.068-.84.204a1.56 1.56 0 0 0-.564.576c-.144.248-.252.54-.324.876a5.982 5.982 0 0 0-.096 1.116v1.368c0 .408.032.78.096 1.116.072.336.18.628.324.876.144.248.332.44.564.576.232.136.512.204.84.204Zm7.196.876c-1 0-1.732-.38-2.196-1.14-.456-.76-.684-1.824-.684-3.192s.228-2.432.684-3.192c.464-.76 1.196-1.14 2.196-1.14 1 0 1.728.38 2.184 1.14.464.76.696 1.824.696 3.192s-.232 2.432-.696 3.192c-.456.76-1.184 1.14-2.184 1.14Zm0-.876c.328 0 .608-.068.84-.204a1.56 1.56 0 0 0 .564-.576c.144-.248.248-.54.312-.876.072-.336.108-.708.108-1.116v-1.368c0-.408-.036-.78-.108-1.116a2.762 2.762 0 0 0-.312-.876 1.56 1.56 0 0 0-.564-.576c-.232-.136-.512-.204-.84-.204-.328 0-.608.068-.84.204a1.56 1.56 0 0 0-.564.576c-.144.248-.252.54-.324.876a5.982 5.982 0 0 0-.096 1.116v1.368c0 .408.032.78.096 1.116.072.336.18.628.324.876.144.248.332.44.564.576.232.136.512.204.84.204Z" fill="#fff"/><path stroke="#4A5A6A" stroke-linecap="round" stroke-dasharray="0.1 4" d="M64.5 46.9h525"/><path d="M1.615 123.2v-.888h2.34v-6.744H3.87l-2.112 1.968-.588-.636 2.22-2.076h1.572v7.488h2.16v.888H1.615Zm12.115-7.488h-3.672l-.24 3.192h.084c.2-.28.424-.504.672-.672.256-.168.604-.252 1.044-.252.36 0 .692.06.996.18.304.12.568.292.792.516.224.216.396.484.516.804.128.32.192.684.192 1.092 0 .408-.064.784-.192 1.128a2.464 2.464 0 0 1-.564.876c-.24.24-.536.428-.888.564a3.18 3.18 0 0 1-1.176.204c-.352 0-.664-.04-.936-.12-.264-.08-.5-.188-.708-.324a3.103 3.103 0 0 1-.552-.456 5.284 5.284 0 0 1-.42-.528l.756-.576c.104.168.212.32.324.456.12.136.248.252.384.348.144.096.308.172.492.228.184.048.404.072.66.072.576 0 1.012-.152 1.308-.456.296-.304.444-.732.444-1.284v-.12c0-.552-.148-.98-.444-1.284-.296-.304-.732-.456-1.308-.456-.384 0-.688.072-.912.216-.216.136-.412.3-.588.492l-.852-.12.3-4.608h4.488v.888Zm4.82 7.632c-1 0-1.733-.38-2.197-1.14-.456-.76-.684-1.824-.684-3.192s.228-2.432.684-3.192c.464-.76 1.196-1.14 2.196-1.14 1 0 1.728.38 2.184 1.14.464.76.696 1.824.696 3.192s-.232 2.432-.696 3.192c-.456.76-1.184 1.14-2.184 1.14Zm0-.876c.327 0 .607-.068.84-.204a1.56 1.56 0 0 0 .563-.576c.144-.248.248-.54.312-.876.072-.336.108-.708.108-1.116v-1.368c0-.408-.036-.78-.108-1.116a2.762 2.762 0 0 0-.312-.876 1.56 1.56 0 0 0-.564-.576c-.232-.136-.512-.204-.84-.204-.328 0-.608.068-.84.204a1.56 1.56 0 0 0-.564.576c-.144.248-.252.54-.324.876a5.982 5.982 0 0 0-.096 1.116v1.368c0 .408.032.78.096 1.116.072.336.18.628.324.876.144.248.332.44.564.576.232.136.512.204.84.204Zm7.194.876c-1 0-1.732-.38-2.195-1.14-.456-.76-.684-1.824-.684-3.192s.228-2.432.684-3.192c.463-.76 1.195-1.14 2.195-1.14 1 0 1.729.38 2.184 1.14.464.76.697 1.824.697 3.192s-.233 2.432-.697 3.192c-.456.76-1.184 1.14-2.184 1.14Zm0-.876c.329 0 .608-.068.84-.204a1.56 1.56 0 0 0 .564-.576c.145-.248.248-.54.313-.876.072-.336.108-.708.108-1.116v-1.368c0-.408-.037-.78-.108-1.116a2.762 2.762 0 0 0-.313-.876 1.56 1.56 0 0 0-.564-.576c-.232-.136-.511-.204-.84-.204-.328 0-.607.068-.84.204a1.56 1.56 0 0 0-.564.576c-.143.248-.252.54-.323.876a5.982 5.982 0 0 0-.096 1.116v1.368c0 .408.032.78.096 1.116.072.336.18.628.323.876.145.248.332.44.564.576.233.136.512.204.84.204Zm5.228-.672c.256 0 .44.068.552.204.12.128.18.296.18.504v.168c0 .328-.096.688-.288 1.08-.192.4-.46.748-.804 1.044h-.804c.24-.256.432-.5.576-.732a2.21 2.21 0 0 0 .324-.756.602.602 0 0 1-.36-.228.739.739 0 0 1-.108-.408v-.168c0-.208.056-.376.168-.504.12-.136.308-.204.564-.204Zm5.237 1.548c-1 0-1.732-.38-2.196-1.14-.456-.76-.684-1.824-.684-3.192s.228-2.432.684-3.192c.464-.76 1.196-1.14 2.196-1.14 1 0 1.728.38 2.184 1.14.464.76.696 1.824.696 3.192s-.232 2.432-.696 3.192c-.456.76-1.184 1.14-2.184 1.14Zm0-.876c.328 0 .608-.068.84-.204a1.56 1.56 0 0 0 .564-.576c.144-.248.248-.54.312-.876.072-.336.108-.708.108-1.116v-1.368c0-.408-.036-.78-.108-1.116a2.762 2.762 0 0 0-.312-.876 1.56 1.56 0 0 0-.564-.576c-.232-.136-.512-.204-.84-.204-.328 0-.608.068-.84.204a1.56 1.56 0 0 0-.564.576c-.144.248-.252.54-.324.876a5.982 5.982 0 0 0-.096 1.116v1.368c0 .408.032.78.096 1.116.072.336.18.628.324.876.144.248.332.44.564.576.232.136.512.204.84.204Zm7.196.876c-1 0-1.732-.38-2.196-1.14-.456-.76-.684-1.824-.684-3.192s.228-2.432.684-3.192c.464-.76 1.196-1.14 2.196-1.14 1 0 1.728.38 2.184 1.14.464.76.696 1.824.696 3.192s-.232 2.432-.696 3.192c-.456.76-1.184 1.14-2.184 1.14Zm0-.876c.328 0 .608-.068.84-.204a1.56 1.56 0 0 0 .564-.576c.144-.248.248-.54.312-.876.072-.336.108-.708.108-1.116v-1.368c0-.408-.036-.78-.108-1.116a2.762 2.762 0 0 0-.312-.876 1.56 1.56 0 0 0-.564-.576c-.232-.136-.512-.204-.84-.204-.328 0-.608.068-.84.204a1.56 1.56 0 0 0-.564.576c-.144.248-.252.54-.324.876a5.982 5.982 0 0 0-.096 1.116v1.368c0 .408.032.78.096 1.116.072.336.18.628.324.876.144.248.332.44.564.576.232.136.512.204.84.204Z" fill="#fff"/><path stroke="#4A5A6A" stroke-linecap="round" stroke-dasharray="0.1 4" d="M64.5 117.7h525"/><path d="M1.615 194v-.888h2.34v-6.744H3.87l-2.112 1.968-.588-.636 2.22-2.076h1.572v7.488h2.16V194H1.615Zm9.739.144c-1 0-1.732-.38-2.196-1.14-.456-.76-.684-1.824-.684-3.192s.228-2.432.684-3.192c.464-.76 1.196-1.14 2.196-1.14 1 0 1.728.38 2.184 1.14.464.76.696 1.824.696 3.192s-.232 2.432-.696 3.192c-.456.76-1.184 1.14-2.184 1.14Zm0-.876c.328 0 .608-.068.84-.204a1.56 1.56 0 0 0 .564-.576c.144-.248.248-.54.312-.876.072-.336.108-.708.108-1.116v-1.368c0-.408-.036-.78-.108-1.116a2.762 2.762 0 0 0-.312-.876 1.56 1.56 0 0 0-.564-.576c-.232-.136-.512-.204-.84-.204-.328 0-.608.068-.84.204a1.56 1.56 0 0 0-.564.576c-.144.248-.252.54-.324.876a5.982 5.982 0 0 0-.096 1.116v1.368c0 .408.032.78.096 1.116.072.336.18.628.324.876.144.248.332.44.564.576.232.136.512.204.84.204Zm7.195.876c-1 0-1.732-.38-2.196-1.14-.456-.76-.684-1.824-.684-3.192s.228-2.432.684-3.192c.464-.76 1.196-1.14 2.196-1.14 1 0 1.728.38 2.184 1.14.464.76.696 1.824.696 3.192s-.232 2.432-.696 3.192c-.456.76-1.184 1.14-2.184 1.14Zm0-.876c.328 0 .608-.068.84-.204a1.56 1.56 0 0 0 .564-.576c.144-.248.248-.54.312-.876.072-.336.108-.708.108-1.116v-1.368c0-.408-.036-.78-.108-1.116a2.762 2.762 0 0 0-.312-.876 1.56 1.56 0 0 0-.564-.576c-.232-.136-.512-.204-.84-.204-.328 0-.608.068-.84.204a1.56 1.56 0 0 0-.564.576c-.144.248-.252.54-.324.876a5.982 5.982 0 0 0-.096 1.116v1.368c0 .408.032.78.096 1.116.072.336.18.628.324.876.144.248.332.44.564.576.232.136.512.204.84.204Zm7.195.876c-1 0-1.732-.38-2.195-1.14-.456-.76-.684-1.824-.684-3.192s.228-2.432.684-3.192c.463-.76 1.195-1.14 2.195-1.14 1 0 1.729.38 2.184 1.14.464.76.697 1.824.697 3.192s-.233 2.432-.697 3.192c-.456.76-1.184 1.14-2.184 1.14Zm0-.876c.329 0 .608-.068.84-.204a1.56 1.56 0 0 0 .564-.576c.145-.248.248-.54.313-.876.072-.336.108-.708.108-1.116v-1.368c0-.408-.037-.78-.108-1.116a2.762 2.762 0 0 0-.313-.876 1.56 1.56 0 0 0-.564-.576c-.232-.136-.511-.204-.84-.204-.328 0-.607.068-.84.204a1.56 1.56 0 0 0-.564.576c-.143.248-.252.54-.323.876a5.982 5.982 0 0 0-.096 1.116v1.368c0 .408.032.78.096 1.116.072.336.18.628.323.876.145.248.332.44.564.576.233.136.512.204.84.204Zm5.228-.672c.256 0 .44.068.552.204.12.128.18.296.18.504v.168c0 .328-.096.688-.288 1.08-.192.4-.46.748-.804 1.044h-.804c.24-.256.432-.5.576-.732a2.21 2.21 0 0 0 .324-.756.602.602 0 0 1-.36-.228.739.739 0 0 1-.108-.408v-.168c0-.208.056-.376.168-.504.12-.136.308-.204.564-.204Zm5.237 1.548c-1 0-1.732-.38-2.196-1.14-.456-.76-.684-1.824-.684-3.192s.228-2.432.684-3.192c.464-.76 1.196-1.14 2.196-1.14 1 0 1.728.38 2.184 1.14.464.76.696 1.824.696 3.192s-.232 2.432-.696 3.192c-.456.76-1.184 1.14-2.184 1.14Zm0-.876c.328 0 .608-.068.84-.204a1.56 1.56 0 0 0 .564-.576c.144-.248.248-.54.312-.876.072-.336.108-.708.108-1.116v-1.368c0-.408-.036-.78-.108-1.116a2.762 2.762 0 0 0-.312-.876 1.56 1.56 0 0 0-.564-.576c-.232-.136-.512-.204-.84-.204-.328 0-.608.068-.84.204a1.56 1.56 0 0 0-.564.576c-.144.248-.252.54-.324.876a5.982 5.982 0 0 0-.096 1.116v1.368c0 .408.032.78.096 1.116.072.336.18.628.324.876.144.248.332.44.564.576.232.136.512.204.84.204Zm7.196.876c-1 0-1.732-.38-2.196-1.14-.456-.76-.684-1.824-.684-3.192s.228-2.432.684-3.192c.464-.76 1.196-1.14 2.196-1.14 1 0 1.728.38 2.184 1.14.464.76.696 1.824.696 3.192s-.232 2.432-.696 3.192c-.456.76-1.184 1.14-2.184 1.14Zm0-.876c.328 0 .608-.068.84-.204a1.56 1.56 0 0 0 .564-.576c.144-.248.248-.54.312-.876.072-.336.108-.708.108-1.116v-1.368c0-.408-.036-.78-.108-1.116a2.762 2.762 0 0 0-.312-.876 1.56 1.56 0 0 0-.564-.576c-.232-.136-.512-.204-.84-.204-.328 0-.608.068-.84.204a1.56 1.56 0 0 0-.564.576c-.144.248-.252.54-.324.876a5.982 5.982 0 0 0-.096 1.116v1.368c0 .408.032.78.096 1.116.072.336.18.628.324.876.144.248.332.44.564.576.232.136.512.204.84.204Z" fill="#fff"/><path stroke="#4A5A6A" stroke-linecap="round" stroke-dasharray="0.1 4" d="M64.5 188.5h525"/><path d="M13.73 257.313h-3.672l-.24 3.192h.084c.2-.28.424-.504.672-.672.256-.168.604-.252 1.044-.252.36 0 .692.06.996.18.304.12.568.292.792.516.224.216.396.484.516.804.128.32.192.684.192 1.092 0 .408-.064.784-.192 1.128a2.464 2.464 0 0 1-.564.876c-.24.24-.536.428-.888.564a3.18 3.18 0 0 1-1.176.204c-.352 0-.664-.04-.936-.12-.264-.08-.5-.188-.708-.324a3.103 3.103 0 0 1-.552-.456 5.284 5.284 0 0 1-.42-.528l.756-.576c.104.168.212.32.324.456.12.136.248.252.384.348.144.096.308.172.492.228.184.048.404.072.66.072.576 0 1.012-.152 1.308-.456.296-.304.444-.732.444-1.284v-.12c0-.552-.148-.98-.444-1.284-.296-.304-.732-.456-1.308-.456-.384 0-.688.072-.912.216-.216.136-.412.3-.588.492l-.852-.12.3-4.608h4.488v.888Zm4.82 7.632c-1 0-1.733-.38-2.197-1.14-.456-.76-.684-1.824-.684-3.192s.228-2.432.684-3.192c.464-.76 1.196-1.14 2.196-1.14 1 0 1.728.38 2.184 1.14.464.76.696 1.824.696 3.192s-.232 2.432-.696 3.192c-.456.76-1.184 1.14-2.184 1.14Zm0-.876c.327 0 .607-.068.84-.204a1.56 1.56 0 0 0 .563-.576c.144-.248.248-.54.312-.876.072-.336.108-.708.108-1.116v-1.368c0-.408-.036-.78-.108-1.116a2.762 2.762 0 0 0-.312-.876 1.56 1.56 0 0 0-.564-.576c-.232-.136-.512-.204-.84-.204-.328 0-.608.068-.84.204a1.56 1.56 0 0 0-.564.576c-.144.248-.252.54-.324.876a5.982 5.982 0 0 0-.096 1.116v1.368c0 .408.032.78.096 1.116.072.336.18.628.324.876.144.248.332.44.564.576.232.136.512.204.84.204Zm7.194.876c-1 0-1.732-.38-2.195-1.14-.456-.76-.684-1.824-.684-3.192s.228-2.432.684-3.192c.463-.76 1.195-1.14 2.195-1.14 1 0 1.729.38 2.184 1.14.464.76.697 1.824.697 3.192s-.233 2.432-.697 3.192c-.456.76-1.184 1.14-2.184 1.14Zm0-.876c.329 0 .608-.068.84-.204a1.56 1.56 0 0 0 .564-.576c.145-.248.248-.54.313-.876.072-.336.108-.708.108-1.116v-1.368c0-.408-.037-.78-.108-1.116a2.762 2.762 0 0 0-.313-.876 1.56 1.56 0 0 0-.564-.576c-.232-.136-.511-.204-.84-.204-.328 0-.607.068-.84.204a1.56 1.56 0 0 0-.564.576c-.143.248-.252.54-.323.876a5.982 5.982 0 0 0-.096 1.116v1.368c0 .408.032.78.096 1.116.072.336.18.628.323.876.145.248.332.44.564.576.233.136.512.204.84.204Zm5.228-.672c.256 0 .44.068.552.204.12.128.18.296.18.504v.168c0 .328-.096.688-.288 1.08-.192.4-.46.748-.804 1.044h-.804c.24-.256.432-.5.576-.732a2.21 2.21 0 0 0 .324-.756.602.602 0 0 1-.36-.228.739.739 0 0 1-.108-.408v-.168c0-.208.056-.376.168-.504.12-.136.308-.204.564-.204Zm5.237 1.548c-1 0-1.732-.38-2.196-1.14-.456-.76-.684-1.824-.684-3.192s.228-2.432.684-3.192c.464-.76 1.196-1.14 2.196-1.14 1 0 1.728.38 2.184 1.14.464.76.696 1.824.696 3.192s-.232 2.432-.696 3.192c-.456.76-1.184 1.14-2.184 1.14Zm0-.876c.328 0 .608-.068.84-.204a1.56 1.56 0 0 0 .564-.576c.144-.248.248-.54.312-.876.072-.336.108-.708.108-1.116v-1.368c0-.408-.036-.78-.108-1.116a2.762 2.762 0 0 0-.312-.876 1.56 1.56 0 0 0-.564-.576c-.232-.136-.512-.204-.84-.204-.328 0-.608.068-.84.204a1.56 1.56 0 0 0-.564.576c-.144.248-.252.54-.324.876a5.982 5.982 0 0 0-.096 1.116v1.368c0 .408.032.78.096 1.116.072.336.18.628.324.876.144.248.332.44.564.576.232.136.512.204.84.204Zm7.196.876c-1 0-1.732-.38-2.196-1.14-.456-.76-.684-1.824-.684-3.192s.228-2.432.684-3.192c.464-.76 1.196-1.14 2.196-1.14 1 0 1.728.38 2.184 1.14.464.76.696 1.824.696 3.192s-.232 2.432-.696 3.192c-.456.76-1.184 1.14-2.184 1.14Zm0-.876c.328 0 .608-.068.84-.204a1.56 1.56 0 0 0 .564-.576c.144-.248.248-.54.312-.876.072-.336.108-.708.108-1.116v-1.368c0-.408-.036-.78-.108-1.116a2.762 2.762 0 0 0-.312-.876 1.56 1.56 0 0 0-.564-.576c-.232-.136-.512-.204-.84-.204-.328 0-.608.068-.84.204a1.56 1.56 0 0 0-.564.576c-.144.248-.252.54-.324.876a5.982 5.982 0 0 0-.096 1.116v1.368c0 .408.032.78.096 1.116.072.336.18.628.324.876.144.248.332.44.564.576.232.136.512.204.84.204Z" fill="#fff"/><path stroke="#4A5A6A" stroke-linecap="round" stroke-dasharray="0.1 4" d="M64.5 259.301h525"/><path d="M25.744 335.745c-1 0-1.732-.38-2.195-1.14-.456-.76-.684-1.824-.684-3.192s.228-2.432.684-3.192c.463-.76 1.195-1.14 2.195-1.14 1 0 1.729.38 2.184 1.14.464.76.697 1.824.697 3.192s-.233 2.432-.697 3.192c-.456.76-1.184 1.14-2.184 1.14Zm0-.876c.329 0 .608-.068.84-.204a1.56 1.56 0 0 0 .564-.576c.145-.248.248-.54.313-.876.072-.336.108-.708.108-1.116v-1.368c0-.408-.037-.78-.108-1.116a2.762 2.762 0 0 0-.313-.876 1.56 1.56 0 0 0-.564-.576c-.232-.136-.511-.204-.84-.204-.328 0-.607.068-.84.204a1.56 1.56 0 0 0-.564.576c-.143.248-.252.54-.323.876a5.982 5.982 0 0 0-.096 1.116v1.368c0 .408.032.78.096 1.116.072.336.18.628.323.876.145.248.332.44.564.576.233.136.512.204.84.204Zm5.228-.672c.256 0 .44.068.552.204.12.128.18.296.18.504v.168c0 .328-.096.688-.288 1.08-.192.4-.46.748-.804 1.044h-.804c.24-.256.432-.5.576-.732a2.21 2.21 0 0 0 .324-.756.602.602 0 0 1-.36-.228.739.739 0 0 1-.108-.408v-.168c0-.208.056-.376.168-.504.12-.136.308-.204.564-.204Zm5.237 1.548c-1 0-1.732-.38-2.196-1.14-.456-.76-.684-1.824-.684-3.192s.228-2.432.684-3.192c.464-.76 1.196-1.14 2.196-1.14 1 0 1.728.38 2.184 1.14.464.76.696 1.824.696 3.192s-.232 2.432-.696 3.192c-.456.76-1.184 1.14-2.184 1.14Zm0-.876c.328 0 .608-.068.84-.204a1.56 1.56 0 0 0 .564-.576c.144-.248.248-.54.312-.876.072-.336.108-.708.108-1.116v-1.368c0-.408-.036-.78-.108-1.116a2.762 2.762 0 0 0-.312-.876 1.56 1.56 0 0 0-.564-.576c-.232-.136-.512-.204-.84-.204-.328 0-.608.068-.84.204a1.56 1.56 0 0 0-.564.576c-.144.248-.252.54-.324.876a5.982 5.982 0 0 0-.096 1.116v1.368c0 .408.032.78.096 1.116.072.336.18.628.324.876.144.248.332.44.564.576.232.136.512.204.84.204Zm7.196.876c-1 0-1.732-.38-2.196-1.14-.456-.76-.684-1.824-.684-3.192s.228-2.432.684-3.192c.464-.76 1.196-1.14 2.196-1.14 1 0 1.728.38 2.184 1.14.464.76.696 1.824.696 3.192s-.232 2.432-.696 3.192c-.456.76-1.184 1.14-2.184 1.14Zm0-.876c.328 0 .608-.068.84-.204a1.56 1.56 0 0 0 .564-.576c.144-.248.248-.54.312-.876.072-.336.108-.708.108-1.116v-1.368c0-.408-.036-.78-.108-1.116a2.762 2.762 0 0 0-.312-.876 1.56 1.56 0 0 0-.564-.576c-.232-.136-.512-.204-.84-.204-.328 0-.608.068-.84.204a1.56 1.56 0 0 0-.564.576c-.144.248-.252.54-.324.876a5.982 5.982 0 0 0-.096 1.116v1.368c0 .408.032.78.096 1.116.072.336.18.628.324.876.144.248.332.44.564.576.232.136.512.204.84.204Z" fill="#fff"/><path stroke="#4A5A6A" stroke-linecap="round" stroke-dasharray="0.1 4" d="M64.5 330.101h525"/><path d="M77.517 315v-1.35h-3.16v-1.12l2.78-4.51h1.63v4.61h.91v1.02h-.91V315h-1.25Zm-2.08-2.37h2.08v-3.33h-.08l-2 3.33Zm5.506 2.37v-1.07h1.92v-4.96h-.09l-1.52 1.8-.82-.69 1.73-2.06h1.99v5.91h1.6V315h-4.81Zm6.576-1.54c.274 0 .474.07.6.21.134.14.2.317.2.53v.18c0 .18-.026.367-.08.56-.046.193-.116.38-.21.56-.086.18-.193.35-.32.51-.12.16-.256.3-.41.42h-.91c.227-.22.417-.437.57-.65.154-.207.27-.437.35-.69-.206-.033-.356-.113-.45-.24a.798.798 0 0 1-.14-.47v-.18a.76.76 0 0 1 .19-.53c.127-.14.33-.21.61-.21Zm4.489 1.66c-.407 0-.77-.05-1.09-.15a2.551 2.551 0 0 1-.8-.43 1.825 1.825 0 0 1-.49-.64 1.92 1.92 0 0 1-.17-.81c0-.453.123-.82.37-1.1.253-.287.59-.487 1.01-.6v-.08a1.94 1.94 0 0 1-.85-.59c-.213-.267-.32-.603-.32-1.01 0-.267.05-.51.15-.73.106-.22.26-.41.46-.57.2-.16.443-.283.73-.37.293-.093.627-.14 1-.14s.703.047.99.14c.293.087.54.21.74.37a1.65 1.65 0 0 1 .61 1.3c0 .407-.11.743-.33 1.01a1.872 1.872 0 0 1-.84.59v.08c.42.113.753.313 1 .6.253.28.38.647.38 1.1 0 .293-.057.563-.17.81-.114.247-.28.46-.5.64a2.41 2.41 0 0 1-.8.43c-.313.1-.673.15-1.08.15Zm0-1.03c.38 0 .67-.087.87-.26.207-.173.31-.417.31-.73v-.21c0-.313-.103-.557-.31-.73-.2-.173-.49-.26-.87-.26s-.673.087-.88.26c-.2.173-.3.417-.3.73v.21c0 .313.1.557.3.73.207.173.5.26.88.26Zm0-3.17c.353 0 .623-.08.81-.24.186-.16.28-.387.28-.68v-.16c0-.287-.094-.51-.28-.67-.187-.16-.457-.24-.81-.24-.353 0-.623.08-.81.24-.187.16-.28.383-.28.67v.16c0 .293.093.52.28.68.187.16.457.24.81.24Zm3.906 4.08v-1.07h1.92v-4.96h-.09l-1.52 1.8-.82-.69 1.73-2.06h1.99v5.91h1.6V315h-4.81Z" fill="#F27E30"/><path d="M112.517 315v-1.35h-3.16v-1.12l2.78-4.51h1.63v4.61h.91v1.02h-.91V315h-1.25Zm-2.08-2.37h2.08v-3.33h-.08l-2 3.33Zm5.506 2.37v-1.07h1.92v-4.96h-.09l-1.52 1.8-.82-.69 1.73-2.06h1.99v5.91h1.6V315h-4.81Zm6.576-1.54c.274 0 .474.07.6.21.134.14.2.317.2.53v.18c0 .18-.026.367-.08.56-.046.193-.116.38-.21.56-.086.18-.193.35-.32.51-.12.16-.256.3-.41.42h-.91c.227-.22.417-.437.57-.65.154-.207.27-.437.35-.69-.206-.033-.356-.113-.45-.24a.8.8 0 0 1-.14-.47v-.18c0-.213.064-.39.19-.53.127-.14.33-.21.61-.21Zm4.489 1.66c-.447 0-.834-.08-1.16-.24a2.177 2.177 0 0 1-.81-.71 3.28 3.28 0 0 1-.48-1.13c-.1-.447-.15-.957-.15-1.53 0-.567.05-1.073.15-1.52.106-.453.266-.833.48-1.14.213-.307.483-.54.81-.7.326-.167.713-.25 1.16-.25.886 0 1.54.317 1.96.95.426.633.64 1.52.64 2.66 0 1.14-.214 2.027-.64 2.66-.42.633-1.074.95-1.96.95Zm0-1.11c.446 0 .756-.167.93-.5.18-.34.27-.797.27-1.37v-1.26c0-.573-.09-1.027-.27-1.36-.174-.34-.484-.51-.93-.51-.447 0-.76.17-.94.51-.174.333-.26.787-.26 1.36v1.26c0 .573.086 1.03.26 1.37.18.333.493.5.94.5Zm5.996 1.11c-.447 0-.833-.08-1.16-.24a2.177 2.177 0 0 1-.81-.71 3.318 3.318 0 0 1-.48-1.13c-.1-.447-.15-.957-.15-1.53 0-.567.05-1.073.15-1.52.107-.453.267-.833.48-1.14.213-.307.483-.54.81-.7.327-.167.713-.25 1.16-.25.887 0 1.54.317 1.96.95.427.633.64 1.52.64 2.66 0 1.14-.213 2.027-.64 2.66-.42.633-1.073.95-1.96.95Zm0-1.11c.447 0 .757-.167.93-.5.18-.34.27-.797.27-1.37v-1.26c0-.573-.09-1.027-.27-1.36-.173-.34-.483-.51-.93-.51-.447 0-.76.17-.94.51-.173.333-.26.787-.26 1.36v1.26c0 .573.087 1.03.26 1.37.18.333.493.5.94.5Z" fill="#2F8FFC"/><path d="M156.951 301v-1.07h1.92v-4.96h-.09l-1.52 1.8-.82-.69 1.73-2.06h1.99v5.91h1.6V301h-4.81Zm10.546 0h-4.84v-1.22l2.19-1.92c.373-.327.647-.62.82-.88.173-.267.26-.553.26-.86v-.13c0-.307-.1-.54-.3-.7a1.1 1.1 0 0 0-.73-.25c-.36 0-.633.103-.82.31-.187.2-.32.443-.4.73l-1.14-.44c.073-.233.177-.453.31-.66.133-.213.3-.4.5-.56.207-.16.447-.287.72-.38.273-.093.587-.14.94-.14.367 0 .693.053.98.16.287.1.527.243.72.43.2.187.35.407.45.66.107.253.16.53.16.83 0 .293-.047.56-.14.8-.093.24-.22.47-.38.69a4.85 4.85 0 0 1-.56.62c-.213.193-.44.39-.68.59l-1.47 1.21h3.41V301Zm3.156-4.16c.4 0 .694-.08.88-.24a.795.795 0 0 0 .29-.63v-.07c0-.287-.093-.51-.28-.67-.18-.167-.43-.25-.75-.25-.306 0-.58.073-.82.22a2.019 2.019 0 0 0-.61.62l-.84-.76c.12-.16.25-.31.39-.45.147-.147.314-.27.5-.37.187-.107.397-.19.63-.25.234-.06.497-.09.79-.09.354 0 .674.043.96.13.294.08.544.2.75.36a1.618 1.618 0 0 1 .66 1.33c0 .227-.036.43-.11.61-.066.18-.163.337-.29.47-.12.133-.263.243-.43.33-.16.08-.33.14-.51.18v.06c.2.04.39.103.57.19a1.4 1.4 0 0 1 .46.35c.134.14.237.307.31.5.08.193.12.413.12.66 0 .307-.063.587-.19.84-.12.253-.293.47-.52.65-.226.18-.496.32-.81.42a3.68 3.68 0 0 1-1.05.14c-.34 0-.64-.037-.9-.11-.26-.067-.49-.16-.69-.28a2.626 2.626 0 0 1-.51-.41 3.385 3.385 0 0 1-.38-.5l.97-.74c.08.14.167.27.26.39.094.113.2.213.32.3s.257.153.41.2c.154.047.327.07.52.07.387 0 .684-.093.89-.28.207-.187.31-.443.31-.77v-.07c0-.32-.113-.563-.34-.73-.22-.167-.54-.25-.96-.25h-.69v-1.1h.69Zm4.866 2.62c.274 0 .474.07.6.21.134.14.2.317.2.53v.18c0 .18-.026.367-.08.56-.046.193-.116.38-.21.56-.086.18-.193.35-.32.51-.12.16-.256.3-.41.42h-.91c.227-.22.417-.437.57-.65.154-.207.27-.437.35-.69-.206-.033-.356-.113-.45-.24a.8.8 0 0 1-.14-.47v-.18c0-.213.064-.39.19-.53.127-.14.33-.21.61-.21Zm4.519 1.66c-.4 0-.757-.063-1.07-.19a2.34 2.34 0 0 1-.8-.55 2.394 2.394 0 0 1-.5-.86c-.114-.34-.17-.72-.17-1.14 0-.5.073-.97.22-1.41a5.43 5.43 0 0 1 .59-1.22c.24-.373.506-.703.8-.99a6.6 6.6 0 0 1 .89-.74h1.78a17.29 17.29 0 0 0-1.11.85 8.3 8.3 0 0 0-.85.83c-.24.28-.44.573-.6.88-.154.3-.27.627-.35.98l.08.02c.066-.133.143-.26.23-.38.093-.127.203-.237.33-.33.126-.1.273-.177.44-.23.166-.06.36-.09.58-.09.286 0 .553.05.8.15.253.1.47.247.65.44.186.187.33.413.43.68.106.267.16.563.16.89 0 .353-.06.677-.18.97a2.212 2.212 0 0 1-1.31 1.26 2.84 2.84 0 0 1-1.04.18Zm0-1.04c.366 0 .653-.1.86-.3.213-.207.32-.5.32-.88v-.15c0-.38-.107-.67-.32-.87-.207-.207-.494-.31-.86-.31-.374 0-.664.103-.87.31-.207.2-.31.49-.31.87v.15c0 .38.103.673.31.88.206.2.496.3.87.3Zm8.116-4.92h-3.14l-.16 2.34h.07c.073-.147.153-.283.24-.41s.187-.233.3-.32c.113-.087.243-.153.39-.2.153-.053.337-.08.55-.08.3 0 .58.05.84.15.26.1.483.247.67.44.193.187.343.417.45.69.113.273.17.583.17.93 0 .353-.057.677-.17.97-.113.293-.28.55-.5.77-.22.213-.49.38-.81.5-.32.12-.687.18-1.1.18-.32 0-.607-.037-.86-.11a2.367 2.367 0 0 1-1.17-.69 3.77 3.77 0 0 1-.37-.5l.96-.74c.08.133.163.26.25.38.087.113.187.213.3.3.12.087.25.157.39.21.147.047.317.07.51.07.393 0 .69-.11.89-.33.207-.22.31-.52.31-.9v-.08c0-.36-.103-.643-.31-.85-.207-.207-.493-.31-.86-.31-.287 0-.52.057-.7.17a1.67 1.67 0 0 0-.43.35l-1.08-.15.26-3.92h4.11v1.14Z" fill="#F27E30"/><path d="M197.951 301v-1.07h1.92v-4.96h-.09l-1.52 1.8-.82-.69 1.73-2.06h1.99v5.91h1.6V301h-4.81Zm5.996 0v-1.07h1.92v-4.96h-.09l-1.52 1.8-.82-.69 1.73-2.06h1.99v5.91h1.6V301h-4.81Zm8.086.12c-.446 0-.833-.08-1.16-.24a2.193 2.193 0 0 1-.81-.71 3.318 3.318 0 0 1-.48-1.13c-.1-.447-.15-.957-.15-1.53 0-.567.05-1.073.15-1.52.107-.453.267-.833.48-1.14.214-.307.484-.54.81-.7.327-.167.714-.25 1.16-.25.887 0 1.54.317 1.96.95.427.633.64 1.52.64 2.66 0 1.14-.213 2.027-.64 2.66-.42.633-1.073.95-1.96.95Zm0-1.11c.447 0 .757-.167.93-.5.18-.34.27-.797.27-1.37v-1.26c0-.573-.09-1.027-.27-1.36-.173-.34-.483-.51-.93-.51-.446 0-.76.17-.94.51-.173.333-.26.787-.26 1.36v1.26c0 .573.087 1.03.26 1.37.18.333.494.5.94.5Zm4.486-.55c.274 0 .474.07.6.21.134.14.2.317.2.53v.18c0 .18-.026.367-.08.56-.046.193-.116.38-.21.56-.086.18-.193.35-.32.51-.12.16-.256.3-.41.42h-.91c.227-.22.417-.437.57-.65.154-.207.27-.437.35-.69-.206-.033-.356-.113-.45-.24a.8.8 0 0 1-.14-.47v-.18c0-.213.064-.39.19-.53.127-.14.33-.21.61-.21Zm4.489 1.66c-.447 0-.834-.08-1.16-.24a2.177 2.177 0 0 1-.81-.71 3.28 3.28 0 0 1-.48-1.13c-.1-.447-.15-.957-.15-1.53 0-.567.05-1.073.15-1.52.106-.453.266-.833.48-1.14.213-.307.483-.54.81-.7.326-.167.713-.25 1.16-.25.886 0 1.54.317 1.96.95.426.633.64 1.52.64 2.66 0 1.14-.214 2.027-.64 2.66-.42.633-1.074.95-1.96.95Zm0-1.11c.446 0 .756-.167.93-.5.18-.34.27-.797.27-1.37v-1.26c0-.573-.09-1.027-.27-1.36-.174-.34-.484-.51-.93-.51-.447 0-.76.17-.94.51-.174.333-.26.787-.26 1.36v1.26c0 .573.086 1.03.26 1.37.18.333.493.5.94.5Zm5.996 1.11c-.447 0-.833-.08-1.16-.24a2.177 2.177 0 0 1-.81-.71 3.318 3.318 0 0 1-.48-1.13c-.1-.447-.15-.957-.15-1.53 0-.567.05-1.073.15-1.52.107-.453.267-.833.48-1.14.213-.307.483-.54.81-.7.327-.167.713-.25 1.16-.25.887 0 1.54.317 1.96.95.427.633.64 1.52.64 2.66 0 1.14-.213 2.027-.64 2.66-.42.633-1.073.95-1.96.95Zm0-1.11c.447 0 .757-.167.93-.5.18-.34.27-.797.27-1.37v-1.26c0-.573-.09-1.027-.27-1.36-.173-.34-.483-.51-.93-.51-.447 0-.76.17-.94.51-.173.333-.26.787-.26 1.36v1.26c0 .573.087 1.03.26 1.37.18.333.493.5.94.5Z" fill="#2F8FFC"/><path d="M252.657 310.84c.4 0 .693-.08.88-.24a.798.798 0 0 0 .29-.63v-.07c0-.287-.093-.51-.28-.67-.18-.167-.43-.25-.75-.25-.307 0-.58.073-.82.22a2.008 2.008 0 0 0-.61.62l-.84-.76c.12-.16.25-.31.39-.45.147-.147.313-.27.5-.37.187-.107.397-.19.63-.25.233-.06.497-.09.79-.09.353 0 .673.043.96.13.293.08.543.2.75.36a1.618 1.618 0 0 1 .66 1.33c0 .227-.037.43-.11.61-.067.18-.163.337-.29.47-.12.133-.263.243-.43.33-.16.08-.33.14-.51.18v.06c.2.04.39.103.57.19.18.087.333.203.46.35.133.14.237.307.31.5.08.193.12.413.12.66 0 .307-.063.587-.19.84-.12.253-.293.47-.52.65-.227.18-.497.32-.81.42a3.68 3.68 0 0 1-1.05.14c-.34 0-.64-.037-.9-.11-.26-.067-.49-.16-.69-.28a2.626 2.626 0 0 1-.51-.41 3.317 3.317 0 0 1-.38-.5l.97-.74c.08.14.167.27.26.39.093.113.2.213.32.3s.257.153.41.2c.153.047.327.07.52.07.387 0 .683-.093.89-.28.207-.187.31-.443.31-.77v-.07c0-.32-.113-.563-.34-.73-.22-.167-.54-.25-.96-.25h-.69v-1.1h.69Zm6.376 4.28c-.446 0-.833-.08-1.16-.24a2.193 2.193 0 0 1-.81-.71 3.318 3.318 0 0 1-.48-1.13c-.1-.447-.15-.957-.15-1.53 0-.567.05-1.073.15-1.52.107-.453.267-.833.48-1.14.214-.307.484-.54.81-.7.327-.167.714-.25 1.16-.25.887 0 1.54.317 1.96.95.427.633.64 1.52.64 2.66 0 1.14-.213 2.027-.64 2.66-.42.633-1.073.95-1.96.95Zm0-1.11c.447 0 .757-.167.93-.5.18-.34.27-.797.27-1.37v-1.26c0-.573-.09-1.027-.27-1.36-.173-.34-.483-.51-.93-.51-.446 0-.76.17-.94.51-.173.333-.26.787-.26 1.36v1.26c0 .573.087 1.03.26 1.37.18.333.494.5.94.5Zm4.486-.55c.274 0 .474.07.6.21.134.14.2.317.2.53v.18c0 .18-.026.367-.08.56-.046.193-.116.38-.21.56-.086.18-.193.35-.32.51-.12.16-.256.3-.41.42h-.91c.227-.22.417-.437.57-.65.154-.207.27-.437.35-.69-.206-.033-.356-.113-.45-.24a.8.8 0 0 1-.14-.47v-.18c0-.213.064-.39.19-.53.127-.14.33-.21.61-.21Zm6.999-2.82c0 .5-.077.973-.23 1.42a5.415 5.415 0 0 1-1.39 2.21c-.294.287-.587.53-.88.73h-1.78c.406-.293.773-.577 1.1-.85.326-.273.61-.55.85-.83.246-.28.446-.57.6-.87.16-.307.28-.637.36-.99l-.08-.02a2.768 2.768 0 0 1-.24.39 1.373 1.373 0 0 1-.32.33c-.127.093-.274.17-.44.23-.167.053-.36.08-.58.08-.294 0-.564-.05-.81-.15a1.926 1.926 0 0 1-.65-.43 2.212 2.212 0 0 1-.43-.68c-.1-.267-.15-.567-.15-.9 0-.353.06-.677.18-.97.12-.293.29-.547.51-.76.22-.213.483-.38.79-.5.313-.12.663-.18 1.05-.18.4 0 .756.067 1.07.2.313.127.58.31.8.55.22.233.386.52.5.86.113.333.17.71.17 1.13Zm-2.54.81c.373 0 .663-.1.87-.3.206-.207.31-.5.31-.88v-.15c0-.38-.104-.67-.31-.87-.207-.207-.497-.31-.87-.31-.367 0-.657.103-.87.31-.207.2-.31.49-.31.87v.15c0 .38.103.673.31.88.213.2.503.3.87.3Zm6.506 3.55v-1.35h-3.16v-1.12l2.78-4.51h1.63v4.61h.91v1.02h-.91V315h-1.25Zm-2.08-2.37h2.08v-3.33h-.08l-2 3.33Z" fill="#F27E30"/><path d="M290.497 315h-4.84v-1.22l2.19-1.92c.373-.327.647-.62.82-.88.173-.267.26-.553.26-.86v-.13c0-.307-.1-.54-.3-.7a1.1 1.1 0 0 0-.73-.25c-.36 0-.633.103-.82.31-.187.2-.32.443-.4.73l-1.14-.44c.073-.233.177-.453.31-.66.133-.213.3-.4.5-.56.207-.16.447-.287.72-.38.273-.093.587-.14.94-.14.367 0 .693.053.98.16.287.1.527.243.72.43.2.187.35.407.45.66.107.253.16.53.16.83 0 .293-.047.56-.14.8-.093.24-.22.47-.38.69a4.85 4.85 0 0 1-.56.62c-.213.193-.44.39-.68.59l-1.47 1.21h3.41V315Zm5.686-5.84h-3.14l-.16 2.34h.07a3.68 3.68 0 0 1 .24-.41 1.285 1.285 0 0 1 .69-.52c.154-.053.337-.08.55-.08.3 0 .58.05.84.15.26.1.484.247.67.44.194.187.344.417.45.69.114.273.17.583.17.93 0 .353-.056.677-.17.97-.113.293-.28.55-.5.77-.22.213-.49.38-.81.5-.32.12-.686.18-1.1.18a3.11 3.11 0 0 1-.86-.11 2.367 2.367 0 0 1-1.17-.69 3.77 3.77 0 0 1-.37-.5l.96-.74c.08.133.164.26.25.38.087.113.187.213.3.3.12.087.25.157.39.21.147.047.317.07.51.07.394 0 .69-.11.89-.33.207-.22.31-.52.31-.9v-.08c0-.36-.103-.643-.31-.85-.206-.207-.493-.31-.86-.31-.286 0-.52.057-.7.17a1.67 1.67 0 0 0-.43.35l-1.08-.15.26-3.92h4.11v1.14Zm2.336 4.3c.274 0 .474.07.6.21.134.14.2.317.2.53v.18c0 .18-.026.367-.08.56-.046.193-.116.38-.21.56-.086.18-.193.35-.32.51-.12.16-.256.3-.41.42h-.91c.227-.22.417-.437.57-.65.154-.207.27-.437.35-.69-.206-.033-.356-.113-.45-.24a.8.8 0 0 1-.14-.47v-.18c0-.213.064-.39.19-.53.127-.14.33-.21.61-.21Zm4.489 1.66c-.447 0-.834-.08-1.16-.24a2.177 2.177 0 0 1-.81-.71 3.28 3.28 0 0 1-.48-1.13c-.1-.447-.15-.957-.15-1.53 0-.567.05-1.073.15-1.52.106-.453.266-.833.48-1.14.213-.307.483-.54.81-.7.326-.167.713-.25 1.16-.25.886 0 1.54.317 1.96.95.426.633.64 1.52.64 2.66 0 1.14-.214 2.027-.64 2.66-.42.633-1.074.95-1.96.95Zm0-1.11c.446 0 .756-.167.93-.5.18-.34.27-.797.27-1.37v-1.26c0-.573-.09-1.027-.27-1.36-.174-.34-.484-.51-.93-.51-.447 0-.76.17-.94.51-.174.333-.26.787-.26 1.36v1.26c0 .573.086 1.03.26 1.37.18.333.493.5.94.5Zm5.996 1.11c-.447 0-.833-.08-1.16-.24a2.177 2.177 0 0 1-.81-.71 3.318 3.318 0 0 1-.48-1.13c-.1-.447-.15-.957-.15-1.53 0-.567.05-1.073.15-1.52.107-.453.267-.833.48-1.14.213-.307.483-.54.81-.7.327-.167.713-.25 1.16-.25.887 0 1.54.317 1.96.95.427.633.64 1.52.64 2.66 0 1.14-.213 2.027-.64 2.66-.42.633-1.073.95-1.96.95Zm0-1.11c.447 0 .757-.167.93-.5.18-.34.27-.797.27-1.37v-1.26c0-.573-.09-1.027-.27-1.36-.173-.34-.483-.51-.93-.51-.447 0-.76.17-.94.51-.173.333-.26.787-.26 1.36v1.26c0 .573.087 1.03.26 1.37.18.333.493.5.94.5Z" fill="#2F8FFC"/><path d="M343.497 315h-4.84v-1.22l2.19-1.92c.373-.327.647-.62.82-.88.173-.267.26-.553.26-.86v-.13c0-.307-.1-.54-.3-.7a1.1 1.1 0 0 0-.73-.25c-.36 0-.633.103-.82.31-.187.2-.32.443-.4.73l-1.14-.44c.073-.233.177-.453.31-.66.133-.213.3-.4.5-.56.207-.16.447-.287.72-.38.273-.093.587-.14.94-.14.367 0 .693.053.98.16.287.1.527.243.72.43.2.187.35.407.45.66.107.253.16.53.16.83 0 .293-.047.56-.14.8-.093.24-.22.47-.38.69a4.85 4.85 0 0 1-.56.62c-.213.193-.44.39-.68.59l-1.47 1.21h3.41V315Zm5.996 0h-4.84v-1.22l2.19-1.92c.374-.327.647-.62.82-.88.174-.267.26-.553.26-.86v-.13c0-.307-.1-.54-.3-.7a1.1 1.1 0 0 0-.73-.25c-.36 0-.633.103-.82.31-.186.2-.32.443-.4.73l-1.14-.44c.074-.233.177-.453.31-.66.134-.213.3-.4.5-.56.207-.16.447-.287.72-.38.274-.093.587-.14.94-.14.367 0 .694.053.98.16.287.1.527.243.72.43.2.187.35.407.45.66.107.253.16.53.16.83 0 .293-.046.56-.14.8-.093.24-.22.47-.38.69-.16.213-.346.42-.56.62-.213.193-.44.39-.68.59l-1.47 1.21h3.41V315Zm2.026-1.54c.274 0 .474.07.6.21.134.14.2.317.2.53v.18c0 .18-.026.367-.08.56-.046.193-.116.38-.21.56-.086.18-.193.35-.32.51-.12.16-.256.3-.41.42h-.91c.227-.22.417-.437.57-.65.154-.207.27-.437.35-.69-.206-.033-.356-.113-.45-.24a.8.8 0 0 1-.14-.47v-.18c0-.213.064-.39.19-.53.127-.14.33-.21.61-.21Zm4.489 1.66c-.407 0-.77-.05-1.09-.15a2.544 2.544 0 0 1-.8-.43 1.813 1.813 0 0 1-.49-.64 1.909 1.909 0 0 1-.17-.81c0-.453.123-.82.37-1.1.253-.287.59-.487 1.01-.6v-.08a1.939 1.939 0 0 1-.85-.59c-.214-.267-.32-.603-.32-1.01 0-.267.05-.51.15-.73.106-.22.26-.41.46-.57.2-.16.443-.283.73-.37a3.3 3.3 0 0 1 1-.14c.373 0 .703.047.99.14.293.087.54.21.74.37.2.16.35.35.45.57.106.22.16.463.16.73 0 .407-.11.743-.33 1.01a1.88 1.88 0 0 1-.84.59v.08c.42.113.753.313 1 .6.253.28.38.647.38 1.1 0 .293-.057.563-.17.81-.114.247-.28.46-.5.64-.214.18-.48.323-.8.43-.314.1-.674.15-1.08.15Zm0-1.03c.38 0 .67-.087.87-.26.206-.173.31-.417.31-.73v-.21c0-.313-.104-.557-.31-.73-.2-.173-.49-.26-.87-.26s-.674.087-.88.26c-.2.173-.3.417-.3.73v.21c0 .313.1.557.3.73.206.173.5.26.88.26Zm0-3.17c.353 0 .623-.08.81-.24.186-.16.28-.387.28-.68v-.16c0-.287-.094-.51-.28-.67-.187-.16-.457-.24-.81-.24-.354 0-.624.08-.81.24-.187.16-.28.383-.28.67v.16c0 .293.093.52.28.68.186.16.456.24.81.24Zm8.506-.28c0 .5-.077.973-.23 1.42a5.415 5.415 0 0 1-1.39 2.21c-.293.287-.587.53-.88.73h-1.78a19.44 19.44 0 0 0 1.1-.85c.327-.273.61-.55.85-.83.247-.28.447-.57.6-.87.16-.307.28-.637.36-.99l-.08-.02a2.768 2.768 0 0 1-.24.39 1.354 1.354 0 0 1-.32.33c-.127.093-.273.17-.44.23-.167.053-.36.08-.58.08-.293 0-.563-.05-.81-.15a1.936 1.936 0 0 1-.65-.43 2.23 2.23 0 0 1-.43-.68c-.1-.267-.15-.567-.15-.9 0-.353.06-.677.18-.97.12-.293.29-.547.51-.76.22-.213.483-.38.79-.5.313-.12.663-.18 1.05-.18.4 0 .757.067 1.07.2.313.127.58.31.8.55.22.233.387.52.5.86.113.333.17.71.17 1.13Zm-2.54.81c.373 0 .663-.1.87-.3.207-.207.31-.5.31-.88v-.15c0-.38-.103-.67-.31-.87-.207-.207-.497-.31-.87-.31-.367 0-.657.103-.87.31-.207.2-.31.49-.31.87v.15c0 .38.103.673.31.88.213.2.503.3.87.3Z" fill="#F27E30"/><path d="M378.497 315h-4.84v-1.22l2.19-1.92c.373-.327.647-.62.82-.88.173-.267.26-.553.26-.86v-.13c0-.307-.1-.54-.3-.7a1.1 1.1 0 0 0-.73-.25c-.36 0-.633.103-.82.31-.187.2-.32.443-.4.73l-1.14-.44c.073-.233.177-.453.31-.66.133-.213.3-.4.5-.56.207-.16.447-.287.72-.38.273-.093.587-.14.94-.14.367 0 .693.053.98.16.287.1.527.243.72.43.2.187.35.407.45.66.107.253.16.53.16.83 0 .293-.047.56-.14.8-.093.24-.22.47-.38.69a4.85 4.85 0 0 1-.56.62c-.213.193-.44.39-.68.59l-1.47 1.21h3.41V315Zm5.996 0h-4.84v-1.22l2.19-1.92c.374-.327.647-.62.82-.88.174-.267.26-.553.26-.86v-.13c0-.307-.1-.54-.3-.7a1.1 1.1 0 0 0-.73-.25c-.36 0-.633.103-.82.31-.186.2-.32.443-.4.73l-1.14-.44c.074-.233.177-.453.31-.66.134-.213.3-.4.5-.56.207-.16.447-.287.72-.38.274-.093.587-.14.94-.14.367 0 .694.053.98.16.287.1.527.243.72.43.2.187.35.407.45.66.107.253.16.53.16.83 0 .293-.046.56-.14.8-.093.24-.22.47-.38.69-.16.213-.346.42-.56.62-.213.193-.44.39-.68.59l-1.47 1.21h3.41V315Zm2.026-1.54c.274 0 .474.07.6.21.134.14.2.317.2.53v.18c0 .18-.026.367-.08.56-.046.193-.116.38-.21.56-.086.18-.193.35-.32.51-.12.16-.256.3-.41.42h-.91c.227-.22.417-.437.57-.65.154-.207.27-.437.35-.69-.206-.033-.356-.113-.45-.24a.8.8 0 0 1-.14-.47v-.18c0-.213.064-.39.19-.53.127-.14.33-.21.61-.21Zm4.489 1.66c-.447 0-.834-.08-1.16-.24a2.177 2.177 0 0 1-.81-.71 3.28 3.28 0 0 1-.48-1.13c-.1-.447-.15-.957-.15-1.53 0-.567.05-1.073.15-1.52.106-.453.266-.833.48-1.14.213-.307.483-.54.81-.7.326-.167.713-.25 1.16-.25.886 0 1.54.317 1.96.95.426.633.64 1.52.64 2.66 0 1.14-.214 2.027-.64 2.66-.42.633-1.074.95-1.96.95Zm0-1.11c.446 0 .756-.167.93-.5.18-.34.27-.797.27-1.37v-1.26c0-.573-.09-1.027-.27-1.36-.174-.34-.484-.51-.93-.51-.447 0-.76.17-.94.51-.174.333-.26.787-.26 1.36v1.26c0 .573.086 1.03.26 1.37.18.333.493.5.94.5Zm5.996 1.11c-.447 0-.833-.08-1.16-.24a2.177 2.177 0 0 1-.81-.71 3.318 3.318 0 0 1-.48-1.13c-.1-.447-.15-.957-.15-1.53 0-.567.05-1.073.15-1.52.107-.453.267-.833.48-1.14.213-.307.483-.54.81-.7.327-.167.713-.25 1.16-.25.887 0 1.54.317 1.96.95.427.633.64 1.52.64 2.66 0 1.14-.213 2.027-.64 2.66-.42.633-1.073.95-1.96.95Zm0-1.11c.447 0 .757-.167.93-.5.18-.34.27-.797.27-1.37v-1.26c0-.573-.09-1.027-.27-1.36-.173-.34-.483-.51-.93-.51-.447 0-.76.17-.94.51-.173.333-.26.787-.26 1.36v1.26c0 .573.087 1.03.26 1.37.18.333.493.5.94.5Z" fill="#2F8FFC"/><path d="M519.187 309.16h-3.14l-.16 2.34h.07c.073-.147.153-.283.24-.41s.187-.233.3-.32c.113-.087.243-.153.39-.2.153-.053.337-.08.55-.08.3 0 .58.05.84.15.26.1.483.247.67.44.193.187.343.417.45.69.113.273.17.583.17.93 0 .353-.057.677-.17.97-.113.293-.28.55-.5.77-.22.213-.49.38-.81.5-.32.12-.687.18-1.1.18-.32 0-.607-.037-.86-.11a2.367 2.367 0 0 1-1.17-.69 3.77 3.77 0 0 1-.37-.5l.96-.74c.08.133.163.26.25.38.087.113.187.213.3.3.12.087.25.157.39.21.147.047.317.07.51.07.393 0 .69-.11.89-.33.207-.22.31-.52.31-.9v-.08c0-.36-.103-.643-.31-.85-.207-.207-.493-.31-.86-.31-.287 0-.52.057-.7.17a1.67 1.67 0 0 0-.43.35l-1.08-.15.26-3.92h4.11v1.14Zm3.466 1.68c.4 0 .694-.08.88-.24a.795.795 0 0 0 .29-.63v-.07c0-.287-.093-.51-.28-.67-.18-.167-.43-.25-.75-.25-.306 0-.58.073-.82.22a2.019 2.019 0 0 0-.61.62l-.84-.76c.12-.16.25-.31.39-.45.147-.147.314-.27.5-.37.187-.107.397-.19.63-.25.234-.06.497-.09.79-.09.354 0 .674.043.96.13.294.08.544.2.75.36a1.618 1.618 0 0 1 .66 1.33c0 .227-.036.43-.11.61-.066.18-.163.337-.29.47-.12.133-.263.243-.43.33-.16.08-.33.14-.51.18v.06c.2.04.39.103.57.19a1.4 1.4 0 0 1 .46.35c.134.14.237.307.31.5.08.193.12.413.12.66 0 .307-.063.587-.19.84-.12.253-.293.47-.52.65-.226.18-.496.32-.81.42a3.68 3.68 0 0 1-1.05.14c-.34 0-.64-.037-.9-.11-.26-.067-.49-.16-.69-.28a2.626 2.626 0 0 1-.51-.41 3.385 3.385 0 0 1-.38-.5l.97-.74c.08.14.167.27.26.39.094.113.2.213.32.3s.257.153.41.2c.154.047.327.07.52.07.387 0 .684-.093.89-.28.207-.187.31-.443.31-.77v-.07c0-.32-.113-.563-.34-.73-.22-.167-.54-.25-.96-.25h-.69v-1.1h.69Zm4.866 2.62c.274 0 .474.07.6.21.134.14.2.317.2.53v.18c0 .18-.026.367-.08.56-.046.193-.116.38-.21.56-.086.18-.193.35-.32.51-.12.16-.256.3-.41.42h-.91c.227-.22.417-.437.57-.65.154-.207.27-.437.35-.69-.206-.033-.356-.113-.45-.24a.8.8 0 0 1-.14-.47v-.18c0-.213.064-.39.19-.53.127-.14.33-.21.61-.21Zm3.179 1.54 2.43-5.91h-2.41v1.28h-1.12v-2.35h4.84v1.13l-2.36 5.85h-1.38Zm9.766 0h-4.84v-1.22l2.19-1.92c.373-.327.647-.62.82-.88.173-.267.26-.553.26-.86v-.13c0-.307-.1-.54-.3-.7a1.1 1.1 0 0 0-.73-.25c-.36 0-.633.103-.82.31-.187.2-.32.443-.4.73l-1.14-.44c.073-.233.177-.453.31-.66.133-.213.3-.4.5-.56.207-.16.447-.287.72-.38.273-.093.587-.14.94-.14.367 0 .693.053.98.16.287.1.527.243.72.43.2.187.35.407.45.66.107.253.16.53.16.83 0 .293-.047.56-.14.8-.093.24-.22.47-.38.69a4.85 4.85 0 0 1-.56.62c-.213.193-.44.39-.68.59l-1.47 1.21h3.41V315Z" fill="#F27E30"/><path d="M554.187 309.16h-3.14l-.16 2.34h.07c.073-.147.153-.283.24-.41s.187-.233.3-.32c.113-.087.243-.153.39-.2.153-.053.337-.08.55-.08.3 0 .58.05.84.15.26.1.483.247.67.44.193.187.343.417.45.69.113.273.17.583.17.93 0 .353-.057.677-.17.97-.113.293-.28.55-.5.77-.22.213-.49.38-.81.5-.32.12-.687.18-1.1.18-.32 0-.607-.037-.86-.11a2.367 2.367 0 0 1-1.17-.69 3.77 3.77 0 0 1-.37-.5l.96-.74c.08.133.163.26.25.38.087.113.187.213.3.3.12.087.25.157.39.21.147.047.317.07.51.07.393 0 .69-.11.89-.33.207-.22.31-.52.31-.9v-.08c0-.36-.103-.643-.31-.85-.207-.207-.493-.31-.86-.31-.287 0-.52.057-.7.17a1.67 1.67 0 0 0-.43.35l-1.08-.15.26-3.92h4.11v1.14Zm3.466 1.68c.4 0 .694-.08.88-.24a.795.795 0 0 0 .29-.63v-.07c0-.287-.093-.51-.28-.67-.18-.167-.43-.25-.75-.25-.306 0-.58.073-.82.22a2.019 2.019 0 0 0-.61.62l-.84-.76c.12-.16.25-.31.39-.45.147-.147.314-.27.5-.37.187-.107.397-.19.63-.25.234-.06.497-.09.79-.09.354 0 .674.043.96.13.294.08.544.2.75.36a1.618 1.618 0 0 1 .66 1.33c0 .227-.036.43-.11.61-.066.18-.163.337-.29.47-.12.133-.263.243-.43.33-.16.08-.33.14-.51.18v.06c.2.04.39.103.57.19a1.4 1.4 0 0 1 .46.35c.134.14.237.307.31.5.08.193.12.413.12.66 0 .307-.063.587-.19.84-.12.253-.293.47-.52.65-.226.18-.496.32-.81.42a3.68 3.68 0 0 1-1.05.14c-.34 0-.64-.037-.9-.11-.26-.067-.49-.16-.69-.28a2.626 2.626 0 0 1-.51-.41 3.385 3.385 0 0 1-.38-.5l.97-.74c.08.14.167.27.26.39.094.113.2.213.32.3s.257.153.41.2c.154.047.327.07.52.07.387 0 .684-.093.89-.28.207-.187.31-.443.31-.77v-.07c0-.32-.113-.563-.34-.73-.22-.167-.54-.25-.96-.25h-.69v-1.1h.69Zm4.866 2.62c.274 0 .474.07.6.21.134.14.2.317.2.53v.18c0 .18-.026.367-.08.56-.046.193-.116.38-.21.56-.086.18-.193.35-.32.51-.12.16-.256.3-.41.42h-.91c.227-.22.417-.437.57-.65.154-.207.27-.437.35-.69-.206-.033-.356-.113-.45-.24a.8.8 0 0 1-.14-.47v-.18c0-.213.064-.39.19-.53.127-.14.33-.21.61-.21Zm4.489 1.66c-.447 0-.834-.08-1.16-.24a2.177 2.177 0 0 1-.81-.71 3.28 3.28 0 0 1-.48-1.13c-.1-.447-.15-.957-.15-1.53 0-.567.05-1.073.15-1.52.106-.453.266-.833.48-1.14.213-.307.483-.54.81-.7.326-.167.713-.25 1.16-.25.886 0 1.54.317 1.96.95.426.633.64 1.52.64 2.66 0 1.14-.214 2.027-.64 2.66-.42.633-1.074.95-1.96.95Zm0-1.11c.446 0 .756-.167.93-.5.18-.34.27-.797.27-1.37v-1.26c0-.573-.09-1.027-.27-1.36-.174-.34-.484-.51-.93-.51-.447 0-.76.17-.94.51-.174.333-.26.787-.26 1.36v1.26c0 .573.086 1.03.26 1.37.18.333.493.5.94.5Zm5.996 1.11c-.447 0-.833-.08-1.16-.24a2.177 2.177 0 0 1-.81-.71 3.318 3.318 0 0 1-.48-1.13c-.1-.447-.15-.957-.15-1.53 0-.567.05-1.073.15-1.52.107-.453.267-.833.48-1.14.213-.307.483-.54.81-.7.327-.167.713-.25 1.16-.25.887 0 1.54.317 1.96.95.427.633.64 1.52.64 2.66 0 1.14-.213 2.027-.64 2.66-.42.633-1.073.95-1.96.95Zm0-1.11c.447 0 .757-.167.93-.5.18-.34.27-.797.27-1.37v-1.26c0-.573-.09-1.027-.27-1.36-.173-.34-.483-.51-.93-.51-.447 0-.76.17-.94.51-.173.333-.26.787-.26 1.36v1.26c0 .573.087 1.03.26 1.37.18.333.493.5.94.5Z" fill="#2F8FFC"/><path d="M414.955 65v-1.07h1.92v-4.96h-.09l-1.52 1.8-.82-.69 1.73-2.06h1.99v5.91h1.6V65h-4.81Zm6.776 0 2.43-5.91h-2.41v1.28h-1.12v-2.35h4.84v1.13l-2.36 5.85h-1.38Zm7.336.12c-.4 0-.757-.063-1.07-.19a2.35 2.35 0 0 1-.8-.55 2.392 2.392 0 0 1-.5-.86c-.113-.34-.17-.72-.17-1.14 0-.5.073-.97.22-1.41a5.43 5.43 0 0 1 .59-1.22c.24-.373.507-.703.8-.99.3-.293.597-.54.89-.74h1.78a17.87 17.87 0 0 0-1.11.85c-.32.273-.603.55-.85.83-.24.28-.44.573-.6.88-.153.3-.27.627-.35.98l.08.02c.067-.133.143-.26.23-.38.093-.127.203-.237.33-.33.127-.1.273-.177.44-.23.167-.06.36-.09.58-.09.287 0 .553.05.8.15.253.1.47.247.65.44.187.187.33.413.43.68.107.267.16.563.16.89 0 .353-.06.677-.18.97a2.212 2.212 0 0 1-1.31 1.26c-.307.12-.653.18-1.04.18Zm0-1.04c.367 0 .653-.1.86-.3.213-.207.32-.5.32-.88v-.15c0-.38-.107-.67-.32-.87-.207-.207-.493-.31-.86-.31-.373 0-.663.103-.87.31-.207.2-.31.49-.31.87v.15c0 .38.103.673.31.88.207.2.497.3.87.3Zm4.656.92 2.43-5.91h-2.41v1.28h-1.12v-2.35h4.84v1.13l-2.36 5.85h-1.38Zm5.796-1.54c.274 0 .474.07.6.21.134.14.2.317.2.53v.18c0 .18-.026.367-.08.56-.046.193-.116.38-.21.56-.086.18-.193.35-.32.51-.12.16-.256.3-.41.42h-.91c.227-.22.417-.437.57-.65.154-.207.27-.437.35-.69-.206-.033-.356-.113-.45-.24a.801.801 0 0 1-.14-.47v-.18c0-.213.064-.39.19-.53.127-.14.33-.21.61-.21Zm3.179 1.54 2.43-5.91h-2.41v1.28h-1.12v-2.35h4.84v1.13l-2.36 5.85h-1.38Zm6.926-4.16c.4 0 .693-.08.88-.24a.798.798 0 0 0 .29-.63v-.07c0-.287-.093-.51-.28-.67-.18-.167-.43-.25-.75-.25-.307 0-.58.073-.82.22a2.008 2.008 0 0 0-.61.62l-.84-.76c.12-.16.25-.31.39-.45.147-.147.313-.27.5-.37.187-.107.397-.19.63-.25.233-.06.497-.09.79-.09.353 0 .673.043.96.13.293.08.543.2.75.36a1.618 1.618 0 0 1 .66 1.33c0 .227-.037.43-.11.61a1.36 1.36 0 0 1-.29.47c-.12.133-.263.243-.43.33-.16.08-.33.14-.51.18v.06c.2.04.39.103.57.19.18.087.333.203.46.35.133.14.237.307.31.5.08.193.12.413.12.66 0 .307-.063.587-.19.84a1.81 1.81 0 0 1-.52.65c-.227.18-.497.32-.81.42a3.67 3.67 0 0 1-1.05.14c-.34 0-.64-.037-.9-.11a2.58 2.58 0 0 1-.69-.28 2.615 2.615 0 0 1-.51-.41 3.302 3.302 0 0 1-.38-.5l.97-.74c.08.14.167.27.26.39.093.113.2.213.32.3s.257.153.41.2c.153.047.327.07.52.07.387 0 .683-.093.89-.28.207-.187.31-.443.31-.77v-.07c0-.32-.113-.563-.34-.73-.22-.167-.54-.25-.96-.25h-.69v-1.1h.69Z" fill="#F27E30"/><path d="M461.955 65v-1.07h1.92v-4.96h-.09l-1.52 1.8-.82-.69 1.73-2.06h1.99v5.91h1.6V65h-4.81Zm8.086.12c-.407 0-.77-.05-1.09-.15a2.549 2.549 0 0 1-.8-.43 1.828 1.828 0 0 1-.49-.64 1.922 1.922 0 0 1-.17-.81c0-.453.123-.82.37-1.1.253-.287.59-.487 1.01-.6v-.08a1.939 1.939 0 0 1-.85-.59c-.213-.267-.32-.603-.32-1.01 0-.267.05-.51.15-.73.107-.22.26-.41.46-.57.2-.16.443-.283.73-.37.293-.093.627-.14 1-.14s.703.047.99.14c.293.087.54.21.74.37a1.646 1.646 0 0 1 .61 1.3c0 .407-.11.743-.33 1.01a1.868 1.868 0 0 1-.84.59v.08c.42.113.753.313 1 .6.253.28.38.647.38 1.1 0 .293-.057.563-.17.81-.113.247-.28.46-.5.64-.213.18-.48.323-.8.43-.313.1-.673.15-1.08.15Zm0-1.03c.38 0 .67-.087.87-.26.207-.173.31-.417.31-.73v-.21c0-.313-.103-.557-.31-.73-.2-.173-.49-.26-.87-.26s-.673.087-.88.26c-.2.173-.3.417-.3.73v.21c0 .313.1.557.3.73.207.173.5.26.88.26Zm0-3.17c.353 0 .623-.08.81-.24.187-.16.28-.387.28-.68v-.16c0-.287-.093-.51-.28-.67-.187-.16-.457-.24-.81-.24-.353 0-.623.08-.81.24-.187.16-.28.383-.28.67V60c0 .293.093.52.28.68.187.16.457.24.81.24Zm5.996 4.2c-.447 0-.833-.08-1.16-.24a2.177 2.177 0 0 1-.81-.71 3.318 3.318 0 0 1-.48-1.13 7.04 7.04 0 0 1-.15-1.53c0-.567.05-1.073.15-1.52.107-.453.267-.833.48-1.14.213-.307.483-.54.81-.7.327-.167.713-.25 1.16-.25.887 0 1.54.317 1.96.95.427.633.64 1.52.64 2.66 0 1.14-.213 2.027-.64 2.66-.42.633-1.073.95-1.96.95Zm0-1.11c.447 0 .757-.167.93-.5.18-.34.27-.797.27-1.37v-1.26c0-.573-.09-1.027-.27-1.36-.173-.34-.483-.51-.93-.51-.447 0-.76.17-.94.51-.173.333-.26.787-.26 1.36v1.26c0 .573.087 1.03.26 1.37.18.333.493.5.94.5Zm5.996 1.11c-.446 0-.833-.08-1.16-.24a2.193 2.193 0 0 1-.81-.71 3.318 3.318 0 0 1-.48-1.13 7.04 7.04 0 0 1-.15-1.53c0-.567.05-1.073.15-1.52.107-.453.267-.833.48-1.14.214-.307.484-.54.81-.7.327-.167.714-.25 1.16-.25.887 0 1.54.317 1.96.95.427.633.64 1.52.64 2.66 0 1.14-.213 2.027-.64 2.66-.42.633-1.073.95-1.96.95Zm0-1.11c.447 0 .757-.167.93-.5.18-.34.27-.797.27-1.37v-1.26c0-.573-.09-1.027-.27-1.36-.173-.34-.483-.51-.93-.51-.446 0-.76.17-.94.51-.173.333-.26.787-.26 1.36v1.26c0 .573.087 1.03.26 1.37.18.333.494.5.94.5Zm4.486-.55c.274 0 .474.07.6.21.134.14.2.317.2.53v.18c0 .18-.026.367-.08.56-.046.193-.116.38-.21.56-.086.18-.193.35-.32.51-.12.16-.256.3-.41.42h-.91c.227-.22.417-.437.57-.65.154-.207.27-.437.35-.69-.206-.033-.356-.113-.45-.24a.801.801 0 0 1-.14-.47v-.18c0-.213.064-.39.19-.53.127-.14.33-.21.61-.21Zm4.489 1.66c-.447 0-.834-.08-1.16-.24a2.177 2.177 0 0 1-.81-.71 3.28 3.28 0 0 1-.48-1.13 7.04 7.04 0 0 1-.15-1.53c0-.567.05-1.073.15-1.52.106-.453.266-.833.48-1.14.213-.307.483-.54.81-.7.326-.167.713-.25 1.16-.25.886 0 1.54.317 1.96.95.426.633.64 1.52.64 2.66 0 1.14-.214 2.027-.64 2.66-.42.633-1.074.95-1.96.95Zm0-1.11c.446 0 .756-.167.93-.5.18-.34.27-.797.27-1.37v-1.26c0-.573-.09-1.027-.27-1.36-.174-.34-.484-.51-.93-.51-.447 0-.76.17-.94.51-.174.333-.26.787-.26 1.36v1.26c0 .573.086 1.03.26 1.37.18.333.493.5.94.5Zm5.996 1.11c-.447 0-.833-.08-1.16-.24a2.177 2.177 0 0 1-.81-.71 3.318 3.318 0 0 1-.48-1.13 7.04 7.04 0 0 1-.15-1.53c0-.567.05-1.073.15-1.52.107-.453.267-.833.48-1.14.213-.307.483-.54.81-.7.327-.167.713-.25 1.16-.25.887 0 1.54.317 1.96.95.427.633.64 1.52.64 2.66 0 1.14-.213 2.027-.64 2.66-.42.633-1.073.95-1.96.95Zm0-1.11c.447 0 .757-.167.93-.5.18-.34.27-.797.27-1.37v-1.26c0-.573-.09-1.027-.27-1.36-.173-.34-.483-.51-.93-.51-.447 0-.76.17-.94.51-.173.333-.26.787-.26 1.36v1.26c0 .573.087 1.03.26 1.37.18.333.493.5.94.5Z" fill="#2F8FFC"/><path fill="#F27E30" d="M79 322h22v8H79zM167 308h22v22h-22zM255 322h22v8h-22zM343 322h22v8h-22zM431 79h22v251h-22zM519 319h22v11h-22z"/><path fill="#2F8FFC" d="M109 322h22v8h-22zM197 310h22v20h-22zM285 322h22v8h-22zM373 322h22v8h-22zM461 71h22v259h-22zM549 319h22v11h-22z"/><path d="M86.509 358.624h1.008v3.708h1.632l1.68-2.868c.184-.304.364-.52.54-.648.176-.128.392-.192.648-.192h.552v.888h-.756l-1.488 2.544c-.144.24-.264.4-.36.48a.963.963 0 0 1-.348.192v.06c.184.04.344.108.48.204.136.096.284.284.444.564l1.56 2.556h.732V367h-.744a1.07 1.07 0 0 1-.552-.156c-.176-.112-.356-.32-.54-.624l-1.848-3.024h-1.632V367h-1.008v-8.376ZM98.799 367c-.36 0-.62-.096-.78-.288a1.459 1.459 0 0 1-.288-.72h-.06c-.136.384-.36.672-.672.864-.312.192-.684.288-1.116.288-.656 0-1.168-.168-1.536-.504-.36-.336-.54-.792-.54-1.368 0-.584.212-1.032.636-1.344.432-.312 1.1-.468 2.004-.468h1.224v-.612c0-.44-.12-.776-.36-1.008-.24-.232-.608-.348-1.104-.348-.376 0-.692.084-.948.252a2.103 2.103 0 0 0-.624.672l-.576-.54c.168-.336.436-.62.804-.852.368-.24.832-.36 1.392-.36.752 0 1.336.184 1.752.552.416.368.624.88.624 1.536v3.408h.708v.84h-.54Zm-2.76-.672c.24 0 .46-.028.66-.084.2-.056.372-.136.516-.24a1.19 1.19 0 0 0 .336-.36.86.86 0 0 0 .12-.444v-1.02H96.4c-.552 0-.956.08-1.212.24a.778.778 0 0 0-.372.696v.252c0 .304.108.54.324.708.224.168.524.252.9.252Zm4.67-5.52h.96v2.58h3.096v-2.58h.96V367h-.96v-2.772h-3.096V367h-.96v-6.192Zm9.395 6.336a2.79 2.79 0 0 1-1.14-.228 2.548 2.548 0 0 1-.888-.648 3.228 3.228 0 0 1-.564-1.02 4.159 4.159 0 0 1-.204-1.344c0-.488.068-.932.204-1.332.136-.4.324-.74.564-1.02.248-.288.544-.508.888-.66a2.79 2.79 0 0 1 1.14-.228c.416 0 .792.076 1.128.228.344.152.64.372.888.66.248.28.44.62.576 1.02.136.4.204.844.204 1.332 0 .496-.068.944-.204 1.344a3.103 3.103 0 0 1-.576 1.02c-.248.28-.544.496-.888.648a2.706 2.706 0 0 1-1.128.228Zm0-.852c.52 0 .944-.16 1.272-.48.328-.32.492-.808.492-1.464v-.888c0-.656-.164-1.144-.492-1.464-.328-.32-.752-.48-1.272-.48s-.944.16-1.272.48c-.328.32-.492.808-.492 1.464v.888c0 .656.164 1.144.492 1.464.328.32.752.48 1.272.48Zm3.404-.132h.816c.104-.144.196-.316.276-.516.08-.2.148-.44.204-.72.056-.28.1-.612.132-.996s.048-.836.048-1.356v-1.764h4.188V367h-.96v-5.352h-2.316v.948c0 .6-.024 1.124-.072 1.572-.04.448-.1.832-.18 1.152-.072.32-.16.584-.264.792-.104.2-.216.36-.336.48-.152.152-.32.26-.504.324a2.283 2.283 0 0 1-.66.084h-.372v-.84Zm12.209.84c-.36 0-.62-.096-.78-.288a1.459 1.459 0 0 1-.288-.72h-.06c-.136.384-.36.672-.672.864-.312.192-.684.288-1.116.288-.656 0-1.168-.168-1.536-.504-.36-.336-.54-.792-.54-1.368 0-.584.212-1.032.636-1.344.432-.312 1.1-.468 2.004-.468h1.224v-.612c0-.44-.12-.776-.36-1.008-.24-.232-.608-.348-1.104-.348-.376 0-.692.084-.948.252a2.103 2.103 0 0 0-.624.672l-.576-.54c.168-.336.436-.62.804-.852.368-.24.832-.36 1.392-.36.752 0 1.336.184 1.752.552.416.368.624.88.624 1.536v3.408h.708v.84h-.54Zm-2.76-.672c.24 0 .46-.028.66-.084.2-.056.372-.136.516-.24a1.19 1.19 0 0 0 .336-.36.86.86 0 0 0 .12-.444v-1.02h-1.272c-.552 0-.956.08-1.212.24a.778.778 0 0 0-.372.696v.252c0 .304.108.54.324.708.224.168.524.252.9.252ZM169.382 358.624h1.008v3.708h1.632l1.68-2.868c.184-.304.364-.52.54-.648.176-.128.392-.192.648-.192h.552v.888h-.756l-1.488 2.544c-.144.24-.264.4-.36.48a.963.963 0 0 1-.348.192v.06c.184.04.344.108.48.204.136.096.284.284.444.564l1.56 2.556h.732V367h-.744a1.07 1.07 0 0 1-.552-.156c-.176-.112-.356-.32-.54-.624l-1.848-3.024h-1.632V367h-1.008v-8.376Zm11.36 2.184h.948l-2.772 7.632a3.08 3.08 0 0 1-.216.456.883.883 0 0 1-.264.3 1.052 1.052 0 0 1-.396.156c-.152.032-.34.048-.564.048h-.492v-.84h.972l.468-1.32-2.316-6.432h.96l1.488 4.212.288 1.008h.06l.336-1.008 1.5-4.212Zm2.173 0h.96v2.592h1.236l1.2-1.896c.088-.144.172-.26.252-.348a.975.975 0 0 1 .24-.216.746.746 0 0 1 .252-.096c.088-.024.188-.036.3-.036h.564v.84h-.744l-.972 1.536a3.41 3.41 0 0 1-.168.252c-.048.064-.096.12-.144.168-.048.04-.1.076-.156.108a1.943 1.943 0 0 1-.204.072v.048c.168.024.312.08.432.168.128.08.26.24.396.48l.948 1.68h.708v.84h-.696c-.208 0-.4-.052-.576-.156-.168-.112-.332-.312-.492-.6l-1.14-2.028h-1.236V367h-.96v-6.192Zm10.413 0h.948l-2.772 7.632a3.08 3.08 0 0 1-.216.456.883.883 0 0 1-.264.3 1.052 1.052 0 0 1-.396.156c-.152.032-.34.048-.564.048h-.492v-.84h.972l.468-1.32-2.316-6.432h.96l1.488 4.212.288 1.008h.06l.336-1.008 1.5-4.212Zm2.172 0h.96v1.008h.048c.16-.392.392-.68.696-.864.312-.192.684-.288 1.116-.288.384 0 .732.076 1.044.228.312.152.576.368.792.648.224.28.392.62.504 1.02.12.4.18.848.18 1.344 0 .496-.06.944-.18 1.344-.112.4-.28.74-.504 1.02-.216.28-.48.496-.792.648-.312.152-.66.228-1.044.228-.84 0-1.444-.384-1.812-1.152h-.048v3.408h-.96v-8.592Zm2.556 5.472c.544 0 .972-.168 1.284-.504.312-.344.468-.792.468-1.344v-1.056c0-.552-.156-.996-.468-1.332-.312-.344-.74-.516-1.284-.516-.216 0-.424.032-.624.096-.192.056-.36.136-.504.24-.144.104-.26.232-.348.384-.08.144-.12.3-.12.468v2.304c0 .2.04.38.12.54.088.152.204.284.348.396.144.104.312.184.504.24.2.056.408.084.624.084Zm8.163-5.472h.948l-2.772 7.632a3.08 3.08 0 0 1-.216.456.883.883 0 0 1-.264.3 1.052 1.052 0 0 1-.396.156c-.152.032-.34.048-.564.048h-.492v-.84h.972l.468-1.32-2.316-6.432h.96l1.488 4.212.288 1.008h.06l.336-1.008 1.5-4.212Zm3.924 6.336c-.632 0-1.136-.108-1.512-.324a2.557 2.557 0 0 1-.924-.924l.72-.576c.16.304.38.544.66.72.288.168.64.252 1.056.252.504 0 .876-.092 1.116-.276.248-.184.372-.42.372-.708v-.144c0-.312-.108-.548-.324-.708-.208-.168-.504-.252-.888-.252h-1.32v-.804h1.2c.384 0 .68-.076.888-.228.208-.152.312-.368.312-.648v-.144a.723.723 0 0 0-.324-.624c-.208-.16-.56-.24-1.056-.24-.408 0-.744.084-1.008.252a1.8 1.8 0 0 0-.636.66l-.636-.54c.192-.36.472-.652.84-.876.376-.232.872-.348 1.488-.348.808 0 1.404.148 1.788.444.384.296.576.704.576 1.224 0 .384-.104.688-.312.912-.2.224-.492.38-.876.468v.048c.44.064.768.224.984.48.224.248.336.568.336.96 0 .6-.228 1.076-.684 1.428-.448.344-1.06.516-1.836.516Zm8.701-.144c-.36 0-.62-.096-.78-.288a1.459 1.459 0 0 1-.288-.72h-.06c-.136.384-.36.672-.672.864-.312.192-.684.288-1.116.288-.656 0-1.168-.168-1.536-.504-.36-.336-.54-.792-.54-1.368 0-.584.212-1.032.636-1.344.432-.312 1.1-.468 2.004-.468h1.224v-.612c0-.44-.12-.776-.36-1.008-.24-.232-.608-.348-1.104-.348-.376 0-.692.084-.948.252a2.103 2.103 0 0 0-.624.672l-.576-.54c.168-.336.436-.62.804-.852.368-.24.832-.36 1.392-.36.752 0 1.336.184 1.752.552.416.368.624.88.624 1.536v3.408h.708v.84h-.54Zm-2.76-.672c.24 0 .46-.028.66-.084.2-.056.372-.136.516-.24a1.19 1.19 0 0 0 .336-.36.86.86 0 0 0 .12-.444v-1.02h-1.272c-.552 0-.956.08-1.212.24a.778.778 0 0 0-.372.696v.252c0 .304.108.54.324.708.224.168.524.252.9.252ZM267.554 358.624h4.56v.888h-3.552V367h-1.008v-8.376Zm7.036 8.52a2.79 2.79 0 0 1-1.14-.228 2.548 2.548 0 0 1-.888-.648 3.228 3.228 0 0 1-.564-1.02 4.159 4.159 0 0 1-.204-1.344c0-.488.068-.932.204-1.332.136-.4.324-.74.564-1.02.248-.288.544-.508.888-.66a2.79 2.79 0 0 1 1.14-.228c.416 0 .792.076 1.128.228.344.152.64.372.888.66.248.28.44.62.576 1.02.136.4.204.844.204 1.332 0 .496-.068.944-.204 1.344a3.103 3.103 0 0 1-.576 1.02c-.248.28-.544.496-.888.648a2.706 2.706 0 0 1-1.128.228Zm0-.852c.52 0 .944-.16 1.272-.48.328-.32.492-.808.492-1.464v-.888c0-.656-.164-1.144-.492-1.464-.328-.32-.752-.48-1.272-.48s-.944.16-1.272.48c-.328.32-.492.808-.492 1.464v.888c0 .656.164 1.144.492 1.464.328.32.752.48 1.272.48Zm4.375-5.484h.96v1.008h.048c.16-.392.392-.68.696-.864.312-.192.684-.288 1.116-.288.384 0 .732.076 1.044.228.312.152.576.368.792.648.224.28.392.62.504 1.02.12.4.18.848.18 1.344 0 .496-.06.944-.18 1.344-.112.4-.28.74-.504 1.02-.216.28-.48.496-.792.648-.312.152-.66.228-1.044.228-.84 0-1.444-.384-1.812-1.152h-.048v3.408h-.96v-8.592Zm2.556 5.472c.544 0 .972-.168 1.284-.504.312-.344.468-.792.468-1.344v-1.056c0-.552-.156-.996-.468-1.332-.312-.344-.74-.516-1.284-.516-.216 0-.424.032-.624.096-.192.056-.36.136-.504.24-.144.104-.26.232-.348.384-.08.144-.12.3-.12.468v2.304c0 .2.04.38.12.54.088.152.204.284.348.396.144.104.312.184.504.24.2.056.408.084.624.084Zm6.745.864a2.79 2.79 0 0 1-1.14-.228 2.548 2.548 0 0 1-.888-.648 3.228 3.228 0 0 1-.564-1.02 4.159 4.159 0 0 1-.204-1.344c0-.488.068-.932.204-1.332.136-.4.324-.74.564-1.02.248-.288.544-.508.888-.66a2.79 2.79 0 0 1 1.14-.228c.416 0 .792.076 1.128.228.344.152.64.372.888.66.248.28.44.62.576 1.02.136.4.204.844.204 1.332 0 .496-.068.944-.204 1.344a3.103 3.103 0 0 1-.576 1.02c-.248.28-.544.496-.888.648a2.706 2.706 0 0 1-1.128.228Zm0-.852c.52 0 .944-.16 1.272-.48.328-.32.492-.808.492-1.464v-.888c0-.656-.164-1.144-.492-1.464-.328-.32-.752-.48-1.272-.48s-.944.16-1.272.48c-.328.32-.492.808-.492 1.464v.888c0 .656.164 1.144.492 1.464.328.32.752.48 1.272.48Zm3.466.708 2.292-3.12-2.196-3.072h1.128l1.572 2.304h.036l1.632-2.304h1.068l-2.184 3 2.232 3.192h-1.128l-1.608-2.424h-.036L292.8 367h-1.068ZM336.791 367.144c-1.064 0-1.892-.36-2.484-1.08-.592-.728-.888-1.796-.888-3.204 0-1.408.296-2.488.888-3.24.592-.76 1.42-1.14 2.484-1.14.704 0 1.292.16 1.764.48.48.32.852.772 1.116 1.356l-.816.492a2.285 2.285 0 0 0-.768-1.032c-.344-.264-.776-.396-1.296-.396-.36 0-.684.068-.972.204-.28.136-.52.332-.72.588-.192.248-.34.548-.444.9a4.019 4.019 0 0 0-.156 1.164v1.248c0 .864.2 1.54.6 2.028.4.488.964.732 1.692.732.536 0 .984-.136 1.344-.408.36-.28.624-.648.792-1.104l.804.504a3.303 3.303 0 0 1-1.14 1.404c-.496.336-1.096.504-1.8.504Zm6.745 0a2.79 2.79 0 0 1-1.14-.228 2.548 2.548 0 0 1-.888-.648 3.228 3.228 0 0 1-.564-1.02 4.159 4.159 0 0 1-.204-1.344c0-.488.068-.932.204-1.332.136-.4.324-.74.564-1.02.248-.288.544-.508.888-.66a2.79 2.79 0 0 1 1.14-.228c.416 0 .792.076 1.128.228.344.152.64.372.888.66.248.28.44.62.576 1.02.136.4.204.844.204 1.332 0 .496-.068.944-.204 1.344a3.103 3.103 0 0 1-.576 1.02c-.248.28-.544.496-.888.648a2.706 2.706 0 0 1-1.128.228Zm0-.852c.52 0 .944-.16 1.272-.48.328-.32.492-.808.492-1.464v-.888c0-.656-.164-1.144-.492-1.464-.328-.32-.752-.48-1.272-.48s-.944.16-1.272.48c-.328.32-.492.808-.492 1.464v.888c0 .656.164 1.144.492 1.464.328.32.752.48 1.272.48Zm6.703.852a2.82 2.82 0 0 1-1.152-.228 2.578 2.578 0 0 1-.876-.648 3.228 3.228 0 0 1-.564-1.02 4.398 4.398 0 0 1-.192-1.344c0-.488.064-.932.192-1.332.136-.4.324-.74.564-1.02.248-.288.54-.508.876-.66a2.82 2.82 0 0 1 1.152-.228c.416 0 .788.076 1.116.228.328.152.608.364.84.636.232.264.408.58.528.948.128.368.192.772.192 1.212v.456h-4.452v.288c0 .264.04.512.12.744.088.224.208.42.36.588.16.168.352.3.576.396.232.096.492.144.78.144.392 0 .732-.092 1.02-.276.296-.184.524-.448.684-.792l.684.492c-.2.424-.512.768-.936 1.032-.424.256-.928.384-1.512.384Zm0-5.676c-.264 0-.504.048-.72.144a1.608 1.608 0 0 0-.564.384 2.019 2.019 0 0 0-.492 1.344v.084h3.42v-.132c0-.552-.152-.992-.456-1.32-.296-.336-.692-.504-1.188-.504Zm4.258-.66h3.12c.504 0 .9.144 1.188.432.288.28.432.66.432 1.14 0 .776-.404 1.212-1.212 1.308v.048c.48.04.836.192 1.068.456.24.256.36.576.36.96 0 .248-.04.484-.12.708-.072.224-.18.42-.324.588a1.67 1.67 0 0 1-.528.408 1.67 1.67 0 0 1-.708.144h-3.276v-6.192Zm2.988 5.4c.288 0 .516-.076.684-.228.168-.152.252-.368.252-.648v-.276c0-.28-.084-.496-.252-.648-.168-.152-.396-.228-.684-.228h-2.028v2.028h2.028Zm-.12-2.808c.264 0 .468-.064.612-.192.152-.136.228-.328.228-.576v-.264c0-.248-.076-.436-.228-.564-.144-.136-.348-.204-.612-.204h-1.908v1.8h1.908Zm3.823-2.592h.96v2.244h1.644c.624 0 1.12.176 1.488.528.368.352.552.836.552 1.452 0 .624-.18 1.108-.54 1.452-.36.344-.856.516-1.488.516h-2.616v-6.192Zm2.472 5.352c.36 0 .64-.068.84-.204.2-.136.3-.364.3-.684v-.504c0-.32-.1-.544-.3-.672-.2-.136-.48-.204-.84-.204h-1.512v2.268h1.512Zm3.216-5.352h.96V367h-.96v-6.192Zm5.324 6.336a2.82 2.82 0 0 1-1.152-.228 2.578 2.578 0 0 1-.876-.648 3.228 3.228 0 0 1-.564-1.02 4.398 4.398 0 0 1-.192-1.344c0-.488.064-.932.192-1.332.136-.4.324-.74.564-1.02.248-.288.54-.508.876-.66a2.82 2.82 0 0 1 1.152-.228c.416 0 .788.076 1.116.228.328.152.608.364.84.636.232.264.408.58.528.948.128.368.192.772.192 1.212v.456h-4.452v.288c0 .264.04.512.12.744.088.224.208.42.36.588.16.168.352.3.576.396.232.096.492.144.78.144.392 0 .732-.092 1.02-.276.296-.184.524-.448.684-.792l.684.492c-.2.424-.512.768-.936 1.032-.424.256-.928.384-1.512.384Zm0-5.676c-.264 0-.504.048-.72.144a1.608 1.608 0 0 0-.564.384 2.019 2.019 0 0 0-.492 1.344v.084h3.42v-.132c0-.552-.152-.992-.456-1.32-.296-.336-.692-.504-1.188-.504Zm9.481 5.676c-.432 0-.82-.072-1.164-.216a2.171 2.171 0 0 1-.876-.672c-.24-.304-.428-.696-.564-1.176-.128-.488-.192-1.076-.192-1.764 0-.888.056-1.648.168-2.28.12-.632.308-1.152.564-1.56.256-.408.58-.712.972-.912.4-.208.884-.336 1.452-.384l1.944-.156v.972l-2.064.168c-.352.032-.648.1-.888.204-.24.104-.44.268-.6.492-.152.216-.272.504-.36.864-.08.36-.14.808-.18 1.344h.048c.184-.424.42-.74.708-.948.296-.208.684-.312 1.164-.312.392 0 .752.072 1.08.216.328.144.608.352.84.624.232.264.412.596.54.996.136.392.204.84.204 1.344 0 .472-.068.9-.204 1.284a2.988 2.988 0 0 1-.576.996c-.248.28-.544.496-.888.648a2.706 2.706 0 0 1-1.128.228Zm.048-.852c.248 0 .476-.04.684-.12.208-.08.388-.2.54-.36.152-.16.272-.356.36-.588.088-.232.132-.504.132-.816v-.756c0-.672-.164-1.172-.492-1.5-.328-.328-.768-.492-1.32-.492-.576 0-1.008.144-1.296.432-.28.28-.42.648-.42 1.104v1.104c0 .672.164 1.172.492 1.5.328.328.768.492 1.32.492Zm6.678.852a2.79 2.79 0 0 1-1.14-.228 2.548 2.548 0 0 1-.888-.648 3.228 3.228 0 0 1-.564-1.02 4.159 4.159 0 0 1-.204-1.344c0-.488.068-.932.204-1.332.136-.4.324-.74.564-1.02.248-.288.544-.508.888-.66a2.79 2.79 0 0 1 1.14-.228c.416 0 .792.076 1.128.228.344.152.64.372.888.66.248.28.44.62.576 1.02.136.4.204.844.204 1.332 0 .496-.068.944-.204 1.344a3.103 3.103 0 0 1-.576 1.02c-.248.28-.544.496-.888.648a2.706 2.706 0 0 1-1.128.228Zm0-.852c.52 0 .944-.16 1.272-.48.328-.32.492-.808.492-1.464v-.888c0-.656-.164-1.144-.492-1.464-.328-.32-.752-.48-1.272-.48s-.944.16-1.272.48c-.328.32-.492.808-.492 1.464v.888c0 .656.164 1.144.492 1.464.328.32.752.48 1.272.48Zm6.821.852c-.432 0-.82-.072-1.164-.216a2.171 2.171 0 0 1-.876-.672c-.24-.304-.428-.696-.564-1.176-.128-.488-.192-1.076-.192-1.764 0-.888.056-1.648.168-2.28.12-.632.308-1.152.564-1.56.256-.408.58-.712.972-.912.4-.208.884-.336 1.452-.384l1.944-.156v.972l-2.064.168c-.352.032-.648.1-.888.204-.24.104-.44.268-.6.492-.152.216-.272.504-.36.864-.08.36-.14.808-.18 1.344h.048c.184-.424.42-.74.708-.948.296-.208.684-.312 1.164-.312.392 0 .752.072 1.08.216.328.144.608.352.84.624.232.264.412.596.54.996.136.392.204.84.204 1.344 0 .472-.068.9-.204 1.284a2.988 2.988 0 0 1-.576.996c-.248.28-.544.496-.888.648a2.706 2.706 0 0 1-1.128.228Zm.048-.852c.248 0 .476-.04.684-.12.208-.08.388-.2.54-.36.152-.16.272-.356.36-.588.088-.232.132-.504.132-.816v-.756c0-.672-.164-1.172-.492-1.5-.328-.328-.768-.492-1.32-.492-.576 0-1.008.144-1.296.432-.28.28-.42.648-.42 1.104v1.104c0 .672.164 1.172.492 1.5.328.328.768.492 1.32.492Zm4.338-5.484h.96v2.244h1.644c.624 0 1.12.176 1.488.528.368.352.552.836.552 1.452 0 .624-.18 1.108-.54 1.452-.36.344-.856.516-1.488.516h-2.616v-6.192Zm2.472 5.352c.36 0 .64-.068.84-.204.2-.136.3-.364.3-.684v-.504c0-.32-.1-.544-.3-.672-.2-.136-.48-.204-.84-.204h-1.512v2.268h1.512Zm3.216-5.352h.96V367h-.96v-6.192ZM428.759 358.624h6.084V367h-1.008v-7.488h-4.068V367h-1.008v-8.376Zm10.564 8.52a2.79 2.79 0 0 1-1.14-.228 2.548 2.548 0 0 1-.888-.648 3.228 3.228 0 0 1-.564-1.02 4.159 4.159 0 0 1-.204-1.344c0-.488.068-.932.204-1.332.136-.4.324-.74.564-1.02.248-.288.544-.508.888-.66a2.79 2.79 0 0 1 1.14-.228c.416 0 .792.076 1.128.228.344.152.64.372.888.66.248.28.44.62.576 1.02.136.4.204.844.204 1.332 0 .496-.068.944-.204 1.344a3.103 3.103 0 0 1-.576 1.02c-.248.28-.544.496-.888.648a2.706 2.706 0 0 1-1.128.228Zm0-.852c.52 0 .944-.16 1.272-.48.328-.32.492-.808.492-1.464v-.888c0-.656-.164-1.144-.492-1.464-.328-.32-.752-.48-1.272-.48s-.944.16-1.272.48c-.328.32-.492.808-.492 1.464v.888c0 .656.164 1.144.492 1.464.328.32.752.48 1.272.48Zm3.427-.132h.708c.248-.4.448-.9.6-1.5.152-.6.228-1.288.228-2.064v-1.788h4.188v5.352h1.032v2.52h-.876V367h-5.004v1.68h-.876v-2.52Zm4.764 0v-4.512h-2.316v.996c0 .824-.072 1.528-.216 2.112-.136.576-.3 1.044-.492 1.404h3.024Zm5.624.984c-.432 0-.82-.076-1.164-.228a2.433 2.433 0 0 1-.876-.648 3.022 3.022 0 0 1-.54-1.02 4.67 4.67 0 0 1-.18-1.344c0-.496.06-.944.18-1.344.128-.4.308-.74.54-1.02.24-.28.532-.496.876-.648a2.851 2.851 0 0 1 1.164-.228c.616 0 1.108.136 1.476.408.376.264.656.612.84 1.044l-.804.408a1.457 1.457 0 0 0-.552-.744c-.256-.176-.576-.264-.96-.264-.288 0-.54.048-.756.144a1.389 1.389 0 0 0-.54.384c-.144.16-.252.356-.324.588a2.422 2.422 0 0 0-.108.744v1.056c0 .544.144.992.432 1.344.296.344.728.516 1.296.516.776 0 1.336-.36 1.68-1.08l.696.468c-.2.448-.5.804-.9 1.068-.392.264-.884.396-1.476.396Zm6.001 0a2.79 2.79 0 0 1-1.14-.228 2.548 2.548 0 0 1-.888-.648 3.228 3.228 0 0 1-.564-1.02 4.159 4.159 0 0 1-.204-1.344c0-.488.068-.932.204-1.332.136-.4.324-.74.564-1.02.248-.288.544-.508.888-.66a2.79 2.79 0 0 1 1.14-.228c.416 0 .792.076 1.128.228.344.152.64.372.888.66.248.28.44.62.576 1.02.136.4.204.844.204 1.332 0 .496-.068.944-.204 1.344a3.103 3.103 0 0 1-.576 1.02c-.248.28-.544.496-.888.648a2.706 2.706 0 0 1-1.128.228Zm0-.852c.52 0 .944-.16 1.272-.48.328-.32.492-.808.492-1.464v-.888c0-.656-.164-1.144-.492-1.464-.328-.32-.752-.48-1.272-.48s-.944.16-1.272.48c-.328.32-.492.808-.492 1.464v.888c0 .656.164 1.144.492 1.464.328.32.752.48 1.272.48Zm3.404-.132h.816c.104-.144.196-.316.276-.516.08-.2.148-.44.204-.72.056-.28.1-.612.132-.996s.048-.836.048-1.356v-1.764h4.188V367h-.96v-5.352h-2.316v.948c0 .6-.024 1.124-.072 1.572-.04.448-.1.832-.18 1.152-.072.32-.16.584-.264.792-.104.2-.216.36-.336.48-.152.152-.32.26-.504.324a2.283 2.283 0 0 1-.66.084h-.372v-.84Zm7.709-5.352h.96v2.58h3.096v-2.58h.96V367h-.96v-2.772h-3.096V367h-.96v-6.192Zm10.871 0h.948l-2.772 7.632a3.08 3.08 0 0 1-.216.456.883.883 0 0 1-.264.3 1.052 1.052 0 0 1-.396.156c-.152.032-.34.048-.564.048h-.492v-.84h.972l.468-1.32-2.316-6.432h.96l1.488 4.212.288 1.008h.06l.336-1.008 1.5-4.212Zm1.404 6.192 2.292-3.12-2.196-3.072h1.128l1.572 2.304h.036l1.632-2.304h1.068l-2.184 3 2.232 3.192h-1.128l-1.608-2.424h-.036l-1.74 2.424h-1.068ZM521.018 358.624h6.084V367h-1.008v-7.488h-4.068V367h-1.008v-8.376Zm8.225 2.184h.96v5.352h2.328v-5.352h.96v5.352h2.328v-5.352h.96V367h-7.536v-6.192Zm11.902 6.336a2.82 2.82 0 0 1-1.152-.228 2.578 2.578 0 0 1-.876-.648 3.228 3.228 0 0 1-.564-1.02 4.398 4.398 0 0 1-.192-1.344c0-.488.064-.932.192-1.332.136-.4.324-.74.564-1.02.248-.288.54-.508.876-.66a2.82 2.82 0 0 1 1.152-.228c.416 0 .788.076 1.116.228.328.152.608.364.84.636.232.264.408.58.528.948.128.368.192.772.192 1.212v.456h-4.452v.288c0 .264.04.512.12.744.088.224.208.42.36.588.16.168.352.3.576.396.232.096.492.144.78.144.392 0 .732-.092 1.02-.276.296-.184.524-.448.684-.792l.684.492c-.2.424-.512.768-.936 1.032-.424.256-.928.384-1.512.384Zm0-5.676c-.264 0-.504.048-.72.144a1.608 1.608 0 0 0-.564.384 2.019 2.019 0 0 0-.492 1.344v.084h3.42v-.132c0-.552-.152-.992-.456-1.32-.296-.336-.692-.504-1.188-.504Zm4.258-.66h.96v2.58h3.096v-2.58h.96V367h-.96v-2.772h-3.096V367h-.96v-6.192Zm7.055 0h.936v3.432l-.096 1.488h.048l.768-1.32 2.472-3.6h.888V367h-.936v-3.432l.096-1.488h-.048l-.768 1.32-2.472 3.6h-.888v-6.192ZM564.504 367h-4.992v-6.192h.96v5.352h2.916v-5.352h.96v5.352h1.032v2.52h-.876V367Zm6.704 0c-.36 0-.62-.096-.78-.288a1.459 1.459 0 0 1-.288-.72h-.06c-.136.384-.36.672-.672.864-.312.192-.684.288-1.116.288-.656 0-1.168-.168-1.536-.504-.36-.336-.54-.792-.54-1.368 0-.584.212-1.032.636-1.344.432-.312 1.1-.468 2.003-.468h1.225v-.612c0-.44-.12-.776-.36-1.008-.24-.232-.608-.348-1.104-.348-.376 0-.692.084-.948.252a2.103 2.103 0 0 0-.624.672l-.576-.54c.168-.336.436-.62.803-.852.369-.24.833-.36 1.393-.36.752 0 1.336.184 1.752.552.416.368.624.88.624 1.536v3.408h.707v.84h-.539Zm-2.76-.672c.24 0 .46-.028.66-.084.2-.056.372-.136.516-.24a1.19 1.19 0 0 0 .336-.36.86.86 0 0 0 .12-.444v-1.02h-1.272c-.552 0-.956.08-1.212.24a.778.778 0 0 0-.372.696v.252c0 .304.108.54.324.708.224.168.524.252.9.252Z" fill="#C1CFDB"/></svg>